<?xml version="1.0" encoding="UTF-8"?>
<!DOCTYPE svg PUBLIC "-//W3C//DTD SVG 1.1//EN" "http://www.w3.org/Graphics/SVG/1.1/DTD/svg11.dtd">
<!-- Creator: CorelDRAW X7 -->
<svg xmlns="http://www.w3.org/2000/svg" xml:space="preserve" width="4.57654in" height="5.11811in" version="1.1" style="shape-rendering:geometricPrecision; text-rendering:geometricPrecision; image-rendering:optimizeQuality; fill-rule:evenodd; clip-rule:evenodd"
viewBox="0 0 4577 5118"
 xmlns:xlink="http://www.w3.org/1999/xlink">
 <defs>
  <style type="text/css">
   <![CDATA[
    .fil4 {fill:#FEFEFE}
    .fil1 {fill:#FFF212}
    .fil7 {fill:#ED3237}
    .fil3 {fill:#00AFEF}
    .fil2 {fill:#00A859}
    .fil0 {fill:#201E1E}
    .fil6 {fill:#FEFEFE;fill-rule:nonzero}
    .fil5 {fill:#201E1E;fill-rule:nonzero}
   ]]>
  </style>
 </defs>
 <g id="Layer_x0020_1">
  <metadata id="CorelCorpID_0Corel-Layer"/>
  <path class="fil0" d="M4356 3420l2 9c13,45 6,97 -14,139 -28,58 -78,96 -139,114 -31,10 -62,13 -93,11 15,11 28,25 35,43 15,40 -8,88 -26,124 -235,488 -614,891 -1117,1105 -485,206 -956,204 -1440,-4 -499,-215 -875,-616 -1109,-1101 -17,-36 -41,-84 -25,-124 7,-18 20,-32 34,-43 -30,2 -61,-1 -92,-11 -61,-18 -111,-56 -139,-114 -20,-42 -27,-94 -15,-139l3 -9 -3 -3c-100,-99 -186,-224 -211,-365 -19,-108 0,-221 70,-308 55,-68 133,-110 219,-125l151 -26 -126 87c-31,22 -58,50 -71,86 -11,27 -12,57 -2,85 11,30 32,54 60,70 36,20 79,24 120,18 7,-1 14,-3 22,-6 14,-5 27,-14 40,-22 30,-20 59,-43 95,-52 93,-25 169,58 220,124l4 6 2 7c120,506 372,998 861,1232 193,92 403,134 616,136 214,-2 423,-44 617,-136 488,-234 741,-726 861,-1232l2 -7 4 -6c51,-66 127,-149 219,-124 36,9 65,32 96,52 18,12 39,25 62,28 40,6 83,2 119,-18 28,-16 50,-40 60,-70 10,-28 9,-58 -1,-85 -13,-36 -40,-64 -71,-86l-127 -87 152 26c86,15 164,57 219,125 70,87 89,200 69,308 -25,141 -110,266 -210,365l-3 3zm-2779 1510c-439,-189 -834,-551 -1092,-1085 -41,-87 -34,-101 14,-137 102,-59 251,-160 224,-413l-32 -1c34,165 -103,419 -309,356 -124,-37 -149,-150 -131,-212 233,-33 352,-97 291,-347l-28 3c70,281 -187,300 -273,299 -330,-325 -234,-689 61,-740 -179,122 -85,350 130,320 115,-16 167,-202 346,31 223,940 786,1386 1510,1394 725,-8 1288,-454 1511,-1394 178,-233 230,-47 345,-31 215,30 310,-198 131,-320 294,51 390,415 60,740 -85,1 -343,-18 -273,-299l-27 -3c-61,250 58,314 291,347 17,62 -7,175 -131,212 -207,63 -343,-191 -309,-356l-32 1c-28,253 121,354 223,413 48,36 56,50 14,137 -259,537 -657,900 -1100,1089 -476,202 -938,201 -1414,-4z"/>
  <path class="fil1" d="M1577 4930c-439,-189 -834,-551 -1092,-1085 -41,-87 -34,-101 14,-137 102,-59 251,-160 224,-413l-32 -1c34,165 -103,419 -309,356 -124,-37 -149,-150 -131,-212 233,-33 352,-97 291,-347l-28 3c70,281 -187,300 -273,299 -330,-325 -234,-689 61,-740 -179,122 -85,350 130,320 115,-16 167,-202 346,31 223,940 786,1386 1510,1394 725,-8 1288,-454 1511,-1394 178,-233 230,-47 345,-31 215,30 310,-198 131,-320 294,51 390,415 60,740 -85,1 -343,-18 -273,-299l-27 -3c-61,250 58,314 291,347 17,62 -7,175 -131,212 -207,63 -343,-191 -309,-356l-32 1c-28,253 121,354 223,413 48,36 56,50 14,137 -259,537 -657,900 -1100,1089 -476,202 -938,201 -1414,-4z"/>
  <path class="fil0" d="M2290 0c94,0 188,11 280,33 424,101 758,417 980,781 269,440 393,971 393,1485 0,513 -124,1044 -393,1484 -222,364 -556,680 -980,781 -92,22 -186,33 -280,33 -94,0 -188,-11 -280,-33 -424,-101 -758,-417 -981,-781 -268,-440 -392,-971 -392,-1484 0,-514 124,-1045 392,-1485 223,-364 557,-680 981,-781 92,-22 186,-33 280,-33zm0 34c892,0 1619,1017 1619,2265 0,1247 -727,2264 -1619,2264 -892,0 -1619,-1017 -1619,-2264 0,-1248 727,-2265 1619,-2265z"/>
  <path class="fil1" d="M2290 34c892,0 1619,1017 1619,2265 0,1247 -727,2264 -1619,2264 -892,0 -1619,-1017 -1619,-2264 0,-1248 727,-2265 1619,-2265zm0 127c88,0 175,11 260,31 395,94 706,387 913,726 249,410 364,903 364,1381 0,477 -115,970 -364,1380 -207,339 -518,632 -913,726 -85,20 -172,31 -260,31 -88,0 -175,-11 -261,-31 -394,-94 -705,-387 -912,-726 -250,-410 -365,-903 -365,-1380 0,-478 115,-971 365,-1381 207,-339 518,-632 913,-726 85,-20 172,-31 260,-31z"/>
  <path class="fil0" d="M2290 161c88,0 175,11 260,31 395,94 706,387 913,726 249,410 364,903 364,1381 0,477 -115,970 -364,1380 -207,339 -518,632 -913,726 -85,20 -172,31 -260,31 -88,0 -175,-11 -261,-31 -394,-94 -705,-387 -912,-726 -250,-410 -365,-903 -365,-1380 0,-478 115,-971 365,-1381 207,-339 518,-632 913,-726 85,-20 172,-31 260,-31zm0 34c828,0 1504,945 1504,2104 0,1158 -676,2103 -1504,2103 -828,0 -1504,-945 -1504,-2103 0,-1159 676,-2104 1504,-2104z"/>
  <path class="fil2" d="M2290 195c828,0 1504,945 1504,2104 0,1158 -676,2103 -1504,2103 -828,0 -1504,-945 -1504,-2103 0,-1159 676,-2104 1504,-2104z"/>
  <path class="fil3" d="M3654 3181c-239,720 -761,1221 -1364,1221 -603,0 -1125,-501 -1365,-1221l2729 0z"/>
  <polygon class="fil4" points="2534,3181 2534,3430 2301,3430 2301,3181 "/>
  <path class="fil5" d="M2542 3181l0 249 0 9 -8 0 -233 0 -8 0 0 -9 0 -249 249 0zm-17 8l-215 0 0 232 215 0 0 -232z"/>
  <polygon class="fil4" points="3024,3181 3024,3430 2783,3430 2783,3181 "/>
  <path class="fil5" d="M3033 3181l0 249 0 9 -9 0 -241 0 -9 0 0 -9 0 -249 259 0zm-18 8l-223 0 0 232 223 0 0 -232z"/>
  <polygon class="fil4" points="3506,3181 3506,3430 3265,3430 3265,3181 "/>
  <path class="fil5" d="M3515 3181l0 249 0 9 -9 0 -241 0 -9 0 0 -9 0 -249 259 0zm-18 8l-223 0 0 232 223 0 0 -232z"/>
  <polygon class="fil4" points="2785,3679 2534,3679 2534,3430 2785,3430 "/>
  <path class="fil5" d="M2785 3688l-251 0 -9 0 0 -9 0 -249 0 -9 9 0 251 0 9 0 0 9 0 249 0 9 -9 0zm-243 -17l234 0 0 -232 -234 0 0 232z"/>
  <polygon class="fil4" points="3265,3679 3024,3679 3024,3430 3265,3430 "/>
  <path class="fil5" d="M3265 3688l-241 0 -9 0 0 -9 0 -249 0 -9 9 0 241 0 9 0 0 9 0 249 0 9 -9 0zm-232 -17l223 0 0 -232 -223 0 0 232z"/>
  <path class="fil4" d="M3506 3533l0 -103 51 0c-16,35 -33,69 -51,103z"/>
  <path class="fil5" d="M3497 3550l0 -120 0 -9 9 0 55 0c-3,6 -6,12 -8,18l-38 0 0 77c-6,11 -12,23 -18,34z"/>
  <polygon class="fil4" points="2301,3929 2534,3929 2534,3679 2301,3679 "/>
  <path class="fil5" d="M2310 3920l215 0 0 -232 -215 0 0 232zm224 18l-233 0 -8 0 0 -9 0 -250 0 -8 8 0 233 0 8 0 0 8 0 250 0 9 -8 0z"/>
  <polygon class="fil4" points="2783,3929 3024,3929 3024,3679 2783,3679 "/>
  <path class="fil5" d="M2792 3920l223 0 0 -232 -223 0 0 232zm232 18l-241 0 -9 0 0 -9 0 -250 0 -8 9 0 241 0 9 0 0 8 0 250 0 9 -9 0z"/>
  <path class="fil4" d="M3423 3679l-158 0 0 218c56,-67 109,-140 158,-218z"/>
  <path class="fil5" d="M3417 3688l-143 0 0 199c-6,7 -12,14 -18,21l0 -229 0 -8 9 0 163 0c-3,6 -7,11 -11,17z"/>
  <polygon class="fil4" points="2785,3929 2534,3929 2534,4179 2785,4179 "/>
  <path class="fil5" d="M2776 3938l-234 0 0 232 234 0 0 -232zm-242 -18l251 0 9 0 0 9 0 250 0 9 -9 0 -251 0 -9 0 0 -9 0 -250 0 -9 9 0z"/>
  <path class="fil4" d="M3238 3929l-214 0 0 204c76,-59 147,-128 214,-204z"/>
  <path class="fil5" d="M3230 3938l-197 0 0 188c-6,5 -12,9 -18,14l0 -211 0 -9 9 0 222 0c-5,6 -11,12 -16,18z"/>
  <path class="fil4" d="M2301 4179l233 0 0 195c-76,18 -154,27 -233,28l0 -223z"/>
  <path class="fil5" d="M2301 4170l233 0 8 0 0 9 0 193c-5,2 -11,3 -17,4l0 -188 -215 0 0 214c-6,0 -11,0 -17,0l0 -223 0 -9 8 0z"/>
  <path class="fil4" d="M2783 4179l180 0c-58,41 -118,76 -180,106l0 -106z"/>
  <path class="fil5" d="M2783 4170l192 0c-8,6 -16,12 -25,18l-158 0 0 93c-6,3 -12,6 -18,9l0 -111 0 -9 9 0z"/>
  <path class="fil6" d="M1026 3437c74,-23 137,-31 196,-31 58,0 113,25 171,43 79,23 168,21 246,-1 65,-18 129,-44 190,-40 123,-3 215,65 328,60 59,-3 104,-5 152,-15l0 0 -62 67 13 132 13 23c-206,56 -257,-37 -410,-45 -128,-6 -215,91 -332,87 -71,-3 -118,-39 -200,-59 -50,-13 -115,-7 -183,7 -44,-72 -85,-148 -122,-228z"/>
  <path class="fil5" d="M1023 3429c24,-8 46,-13 68,-18 47,-10 90,-14 131,-14 45,0 88,15 131,29 14,5 28,10 42,14 38,11 78,17 119,17 42,0 84,-6 123,-18 14,-3 27,-8 40,-12 52,-15 103,-31 153,-28 63,-1 117,15 171,31 51,16 101,31 156,29l10 -1c54,-2 97,-4 142,-15l0 10 -11 11c-40,8 -81,10 -130,12l-10 1c-58,2 -110,-14 -163,-30 -52,-15 -105,-32 -166,-30l0 0 0 0c-47,-3 -97,12 -147,27 -13,5 -27,9 -40,13 -41,11 -85,17 -128,17 -42,1 -84,-5 -124,-17 -14,-4 -28,-9 -43,-14 -42,-14 -83,-28 -125,-28 -40,-1 -81,4 -127,13 -21,5 -42,10 -65,17 -2,-5 -5,-11 -7,-16zm1255 254c-133,37 -203,13 -275,-12 -42,-15 -85,-29 -141,-32 -63,-3 -117,21 -170,44 -52,23 -103,45 -162,43 -43,-2 -77,-15 -115,-30 -25,-11 -53,-21 -86,-30 -40,-10 -92,-8 -147,2 -10,1 -19,3 -29,5 -3,-5 -6,-10 -10,-16 12,-2 24,-5 36,-7 57,-9 111,-12 154,-1 35,9 63,20 89,30 36,15 69,28 109,29 55,2 104,-20 154,-41 55,-24 110,-49 178,-46 59,3 103,18 145,33 69,24 136,46 261,13l9 16z"/>
  <path class="fil6" d="M1318 3901c51,-14 96,-20 139,-20 50,1 97,24 147,40 68,23 145,21 213,0 55,-17 111,-42 164,-38 106,-3 185,61 283,56l5 0 -4 9 -11 117 57 90 0 9c-140,18 -200,-66 -319,-73 -110,-5 -168,86 -269,82 -61,-3 -101,-37 -172,-56 -6,-1 -13,-3 -20,-4 -76,-62 -147,-133 -213,-212z"/>
  <path class="fil5" d="M1312 3894c10,-3 21,-6 31,-8 41,-10 78,-14 114,-14 39,1 76,14 113,28 12,4 25,9 37,13 32,11 67,16 101,15 36,0 72,-5 106,-16 12,-3 23,-7 35,-11 45,-15 89,-30 132,-26 55,-2 102,14 148,29 45,15 88,29 135,26l9 0 1 0 -9 18c-51,3 -95,-12 -141,-27 -45,-15 -91,-30 -143,-29l-1 0 0 0c-40,-3 -82,12 -126,26 -11,4 -23,8 -34,11 -36,11 -74,17 -112,17 -36,0 -72,-5 -107,-16 -12,-4 -25,-9 -37,-13 -36,-14 -71,-27 -107,-27 -35,0 -70,4 -110,13 -7,2 -15,4 -23,6 -4,-5 -8,-10 -12,-15zm999 279c-81,10 -136,-13 -191,-36 -40,-17 -79,-34 -129,-37 -54,-2 -95,19 -136,41 -41,22 -81,43 -132,41 -38,-2 -67,-15 -100,-29 -22,-9 -46,-19 -74,-27 -1,0 -2,-1 -4,-1 -9,-7 -18,-15 -27,-22 13,1 24,3 35,6 30,8 54,18 77,28 31,13 59,26 93,27 47,2 85,-18 124,-39 43,-22 86,-45 145,-42 53,2 94,20 135,37 53,23 106,45 184,35l0 18z"/>
  <path class="fil5" d="M2209 4399l0 -20 0 -18 13 -14 42 -44 0 -151 -45 -53 -12 -14 0 -17 0 -113 0 -15 9 -12 48 -69 0 -124 -47 -61 -10 -13 0 -16 0 -138 0 -17 11 -13 43 -51 0 -152 -46 -53 -11 -13 0 -18 0 -70 94 0 0 53 46 52 12 14 0 17 0 187 0 17 -11 13 -43 52 0 104 47 61 10 13 0 16 0 155 0 15 -9 12 -48 69 0 81 45 54 11 13 0 17 0 187 0 19 -13 14 -42 43 0 4c-4,0 -9,0 -13,0 -27,0 -54,-1 -81,-3z"/>
  <path class="fil4" d="M2287 4402l0 -10 55 -58 0 -210 -57 -66 0 -93 57 -81 0 -175 -57 -74 0 -117 54 -64 0 -209 -57 -66 0 -42 -62 0 0 64 58 66 0 165 -54 64 0 159 57 74 0 136 -57 81 0 133 56 67 0 164 -55 57 0 33c21,1 41,2 62,2z"/>
  <polygon class="fil0" points="3655,3181 925,3181 1231,2820 1728,2820 1836,3010 2064,2559 2579,2559 2775,2999 2851,2870 3398,2870 "/>
  <path class="fil5" d="M1756 673c-33,1 -66,38 -98,76 -17,19 -35,39 -52,54l-12 -14c17,-14 34,-33 50,-52 35,-40 71,-80 112,-81l0 17zm203 1571l6 65c20,5 40,9 60,14 47,10 92,19 132,43 12,7 14,5 6,16 -17,23 -16,14 -39,0 -31,-19 -64,-34 -103,-42 -54,-12 -110,-23 -164,-57 -14,-1 -25,-5 -37,-9 -22,-7 -44,-14 -80,7l-8 -16c42,-25 68,-16 93,-8l3 1 -158 -134 -14 -7c-21,-10 -43,-11 -64,-12 -15,0 -30,-1 -45,-4l3 -17c14,3 28,3 42,4 14,0 28,1 42,3 -5,-6 -10,-12 -16,-17 -23,-27 -47,-53 -61,-90 -32,-10 -50,-32 -68,-55 -9,-11 -18,-22 -28,-31l-3 -2 0 -4c-1,-14 -6,-28 -10,-42 -9,-29 -18,-58 -2,-95 -12,-15 -22,-31 -32,-47 -19,-32 -37,-62 -74,-80l7 -16c12,6 23,13 32,21 3,-17 4,-34 5,-52 2,-20 3,-41 7,-60 -7,-18 -15,-35 -23,-53 -19,-40 -37,-80 -43,-131l8 -1 -5 -7c22,-17 41,-38 60,-61l-13 -245 18 -1 3 51 127 -57 7 16 -133 61 8 156c8,-8 15,-17 23,-25l13 13c-11,11 -22,24 -33,36 -21,24 -41,48 -65,67 6,45 24,83 41,121 5,11 11,23 16,35 6,-14 16,-26 30,-36l10 14c-16,12 -25,28 -30,47l0 1 -1 1c-5,18 -6,39 -7,59 -1,23 -3,45 -8,65 14,16 25,34 36,52 10,17 20,34 33,49l4 5 -3 5c-16,33 -8,60 1,87 4,14 9,27 10,42 10,10 19,20 27,31 17,21 34,43 64,50l4 1 2 5c13,35 36,62 60,88 7,8 15,17 22,25l82 70 -5 -42 18 -2 7 61 109 93c26,17 54,28 81,36l-5 -57 18 -2zm-422 -1381c-1,25 -13,53 -30,79 -22,32 -51,62 -76,82l-11 -14c23,-19 52,-47 72,-78 16,-24 27,-48 27,-70l18 1zm141 -34c-30,9 -60,8 -89,6 -14,0 -28,-1 -42,-1l-1 -17c15,-1 29,0 44,1 28,1 56,2 83,-6l5 17z"/>
  <path class="fil1" d="M1594 2381c106,10 124,-57 205,-82 79,-25 107,25 177,26 -30,55 -37,91 -106,103 -60,17 -178,3 -276,-47z"/>
  <g>
   <path class="fil5" d="M1595 2377c63,5 94,-17 127,-41 21,-16 43,-32 75,-41 49,-16 79,-4 110,9 21,8 42,16 70,17 3,0 5,2 5,4 0,1 -1,2 -1,3 -5,8 -9,16 -13,24 -22,42 -36,70 -96,81 -33,9 -81,9 -134,0 -47,-8 -99,-24 -146,-47 -3,-2 -4,-5 -2,-7 1,-2 3,-2 5,-2l0 0zm134 -34c-31,22 -60,43 -112,44 41,18 83,30 123,37 52,8 98,8 129,0l0 0 0 -1c56,-10 69,-35 89,-75 3,-6 7,-12 10,-18 -26,-2 -46,-10 -65,-18 -30,-11 -58,-23 -102,-9 -30,10 -52,25 -72,40zm252 -15c-1,1 -3,2 -5,2l5 -2z"/>
  </g>
  <path class="fil1" d="M1425 2186c97,44 136,-13 220,-11 83,3 94,59 160,83 -124,111 -261,50 -380,-72z"/>
  <path class="fil5" d="M1427 2182c58,26 95,15 134,3 25,-8 51,-16 84,-15 51,2 76,23 101,45 17,14 34,29 60,38 3,1 5,4 4,7 -1,0 -1,1 -2,2 -58,52 -120,67 -182,55 -70,-13 -140,-61 -205,-128 -2,-2 -2,-5 1,-6 1,-2 3,-2 5,-1l0 0zm138 12c-36,11 -71,21 -120,5 58,57 120,97 183,109 56,10 113,-3 167,-49 -23,-10 -40,-24 -55,-37 -25,-21 -48,-41 -94,-42 -32,-1 -57,7 -81,14z"/>
  <path class="fil1" d="M1787 1968c66,72 10,124 37,196 26,71 85,83 125,134 78,-129 -22,-262 -162,-330z"/>
  <path class="fil5" d="M1803 1981c27,37 23,70 20,103 -3,25 -6,51 5,79 15,42 43,63 72,84 16,13 33,25 48,43 3,-4 5,-8 6,-12 27,-54 22,-109 -3,-158 -26,-50 -72,-94 -128,-128 -7,-4 -13,-8 -20,-11zm11 101c4,-36 7,-70 -30,-111l0 0c-2,-2 -2,-4 -2,-5 1,-3 4,-4 6,-3 13,7 26,14 38,21 58,35 106,81 132,132 27,52 32,110 5,167 -3,6 -6,11 -10,17 0,1 0,1 -1,1 -1,2 -4,1 -6,-1 -15,-19 -33,-32 -51,-46 -30,-22 -59,-43 -75,-89 -12,-30 -9,-57 -6,-83z"/>
  <path class="fil1" d="M1254 1920c81,69 134,25 215,51 78,26 73,82 129,124 -150,72 -264,-24 -344,-175z"/>
  <path class="fil5" d="M1257 1917c48,41 87,40 127,40 27,0 54,-1 86,9 48,16 66,43 84,71 12,19 25,38 47,54 3,2 3,5 2,7 -1,1 -1,1 -2,1 -71,34 -135,31 -190,3 -65,-32 -118,-98 -162,-180 -1,-2 0,-5 2,-6 2,-1 4,0 6,1l0 0zm129 50c-38,0 -74,1 -117,-29 40,71 89,127 146,156 51,26 109,29 174,0 -20,-17 -32,-35 -43,-52 -17,-27 -34,-52 -79,-66 -29,-10 -56,-10 -81,-9z"/>
  <path class="fil1" d="M1636 1840c19,77 -15,113 -14,162 2,85 80,95 122,148 78,-129 -7,-236 -108,-310z"/>
  <path class="fil5" d="M1642 1850c9,44 1,74 -7,101 -4,18 -9,34 -8,52 0,52 33,75 67,98 17,12 35,24 49,41 35,-61 33,-117 10,-166 -22,-48 -64,-90 -111,-126zm-15 98c8,-29 16,-60 4,-107 0,-2 0,-3 1,-4 1,-2 4,-3 6,-1 51,38 99,84 123,137 25,53 27,114 -13,179 0,1 0,1 -1,2 -2,1 -4,1 -6,-1 -14,-18 -33,-31 -52,-44 -36,-25 -70,-49 -71,-107 -1,-19 4,-36 9,-54z"/>
  <path class="fil1" d="M1181 1631c60,88 123,60 194,106 69,46 48,99 92,155 -164,29 -249,-95 -286,-261z"/>
  <path class="fil5" d="M1185 1629c36,52 73,62 112,72 26,7 52,14 80,32 42,28 52,59 63,91 6,21 13,43 30,65 2,2 2,5 0,7 -1,0 -1,1 -2,1 -78,13 -138,-7 -184,-49 -53,-48 -88,-126 -108,-216 0,-3 1,-5 4,-6 2,0 4,1 5,3l0 0zm111 82c-36,-10 -71,-19 -105,-59 20,79 52,146 99,189 42,39 97,58 168,47 -15,-21 -21,-42 -28,-62 -9,-30 -19,-59 -58,-84 -26,-18 -51,-24 -76,-31z"/>
  <path class="fil1" d="M1566 1648c-8,79 -52,101 -68,148 -27,81 43,116 65,181 117,-95 74,-224 3,-329z"/>
  <path class="fil5" d="M1569 1660c-6,44 -24,70 -41,93 -10,15 -20,28 -26,45 -16,50 7,82 30,116 13,17 25,35 33,55 54,-46 70,-99 66,-153 -5,-53 -30,-107 -62,-156zm-48 87c17,-25 36,-51 41,-99 0,-2 1,-3 2,-4 1,-1 4,-1 6,1 35,53 64,113 69,171 6,59 -13,116 -73,164 0,1 -1,1 -1,1 -2,1 -5,0 -6,-3 -7,-22 -20,-40 -33,-59 -26,-35 -50,-70 -32,-124 6,-19 17,-33 27,-48z"/>
  <path class="fil1" d="M1173 1324c36,100 104,88 161,150 55,61 22,108 51,172 -166,-12 -218,-152 -212,-322z"/>
  <path class="fil5" d="M1177 1322c22,60 55,78 91,98 23,13 47,26 69,51 34,37 36,70 38,103 2,22 3,45 14,70 1,3 1,6 -2,7 -1,0 -1,1 -2,0 -79,-5 -132,-40 -167,-92 -39,-60 -53,-144 -50,-236 0,-3 2,-5 5,-5 2,1 3,2 4,4l0 0zm87 107c-33,-18 -64,-35 -87,-83 0,82 14,155 49,208 32,48 80,79 152,87 -10,-25 -11,-46 -12,-67 -2,-32 -4,-62 -36,-96 -21,-24 -44,-36 -66,-49z"/>
  <path class="fil1" d="M1262 1000c-1,106 67,119 98,198 31,76 -16,108 -12,179 -151,-70 -150,-219 -86,-377z"/>
  <path class="fil5" d="M1267 1000c-1,64 24,93 50,124 18,20 35,41 48,71 19,48 9,78 -1,111 -6,21 -13,43 -11,70 0,3 -2,6 -4,6 -1,0 -2,0 -3,-1 -71,-33 -110,-83 -123,-144 -17,-70 0,-154 35,-239 1,-3 4,-4 6,-3 2,1 3,3 3,5l0 0zm44 131c-25,-29 -48,-56 -53,-108 -28,76 -41,149 -26,211 12,56 47,103 111,135 0,-26 6,-47 12,-67 10,-30 18,-59 1,-102 -12,-30 -29,-50 -45,-69z"/>
  <path class="fil1" d="M1567 1241c-46,65 -95,62 -132,95 -64,56 -20,122 -33,189 148,-25 175,-158 165,-284z"/>
  <path class="fil5" d="M1564 1253c-28,35 -56,48 -82,60 -16,8 -31,15 -45,27 -39,35 -35,74 -31,115 2,21 4,43 1,64 69,-13 110,-51 133,-100 22,-48 27,-107 24,-166zm-85 52c27,-13 57,-27 85,-67 0,-1 1,-2 3,-2 2,0 4,2 4,4 5,64 1,130 -23,183 -25,54 -70,94 -145,107 -1,0 -1,0 -2,0 -2,-1 -4,-3 -3,-6 4,-22 2,-45 0,-67 -5,-44 -9,-86 34,-124 14,-13 30,-21 47,-28z"/>
  <path class="fil1" d="M1653 1064c-66,44 -111,23 -158,41 -79,29 -62,106 -98,164 147,30 220,-85 256,-205z"/>
  <path class="fil5" d="M1646 1074c-39,22 -70,24 -98,26 -18,2 -35,3 -52,9 -49,18 -59,56 -70,96 -6,21 -11,41 -22,60 69,13 121,-7 160,-45 38,-37 64,-91 82,-146zm-98 17c30,-2 62,-4 103,-31 1,-1 2,-1 4,-1 2,0 3,3 3,5 -19,62 -47,121 -89,162 -42,41 -98,63 -173,48 -1,-1 -1,-1 -2,-1 -2,-1 -2,-4 -1,-6 12,-20 18,-42 24,-63 12,-43 23,-84 77,-104 18,-6 36,-8 54,-9z"/>
  <path class="fil1" d="M1412 722c-27,102 35,132 46,215 11,82 -43,102 -56,171 -129,-105 -92,-250 10,-386z"/>
  <path class="fil5" d="M1416 723c-16,61 1,96 19,132 12,24 24,48 28,81 7,51 -10,78 -28,107 -11,19 -23,39 -28,66 -1,3 -3,4 -6,4 -1,0 -1,-1 -2,-1 -61,-50 -86,-108 -84,-171 2,-72 38,-148 93,-223 2,-2 5,-2 7,-1 1,2 2,4 1,6l0 0zm11 137c-17,-33 -33,-65 -24,-117 -47,67 -77,135 -79,198 -1,57 21,111 75,158 7,-25 18,-44 29,-62 16,-27 32,-52 26,-99 -4,-31 -16,-55 -27,-78z"/>
  <path class="fil1" d="M1782 883c-74,31 -114,2 -163,10 -83,14 -82,92 -128,142 138,58 232,-40 291,-152z"/>
  <path class="fil5" d="M1773 892c-42,14 -73,11 -102,7 -17,-2 -34,-4 -52,-1 -51,8 -69,43 -88,80 -9,19 -19,38 -33,55 66,26 120,16 166,-14 44,-29 80,-76 109,-127zm-99 -2c29,4 62,8 106,-11 2,0 3,-1 4,0 2,1 3,4 2,6 -30,56 -69,110 -118,142 -49,32 -109,42 -179,12 -1,0 -1,0 -2,0 -1,-2 -1,-5 0,-7 16,-17 26,-37 36,-57 20,-39 39,-77 96,-86 19,-4 36,-1 55,1z"/>
  <path class="fil1" d="M1677 530c-63,85 -16,136 -37,217 -20,80 -77,79 -115,138 -81,-145 7,-265 152,-355z"/>
  <path class="fil5" d="M1681 533c-38,51 -35,89 -32,130 2,26 4,53 -4,85 -12,50 -38,69 -65,89 -18,14 -36,27 -51,51 -1,2 -4,3 -7,2 0,-1 -1,-1 -1,-2 -39,-69 -40,-132 -15,-190 28,-66 90,-124 169,-173 2,-1 5,0 6,2 1,2 1,4 -1,6l1 0zm-42 131c-3,-37 -5,-73 21,-118 -67,45 -121,97 -145,156 -23,52 -22,111 11,174 15,-21 32,-34 49,-47 25,-19 49,-37 61,-82 7,-31 5,-57 3,-83z"/>
  <path class="fil1" d="M1963 762c-79,7 -109,-32 -159,-38 -83,-12 -105,64 -164,98 115,96 234,29 323,-60z"/>
  <path class="fil5" d="M1952 767c-45,2 -73,-11 -99,-23 -17,-7 -32,-14 -50,-16 -52,-7 -79,22 -107,51 -15,16 -30,31 -48,43 55,44 110,50 162,35 51,-15 99,-49 142,-90zm-95 -31c28,13 57,26 106,21 1,0 2,0 3,1 2,2 2,5 0,7 -45,45 -97,84 -154,101 -56,16 -116,9 -175,-41 -1,0 -1,0 -1,-1 -1,-2 -1,-5 2,-6 20,-11 35,-28 51,-44 30,-32 59,-63 117,-55 19,3 35,10 51,17z"/>
  <path class="fil1" d="M2023 558c-167,37 -166,-68 -306,122 132,72 241,-31 306,-122z"/>
  <g>
   <path class="fil5" d="M2012 565c-51,9 -86,6 -114,3 -56,-6 -86,-9 -174,110 63,33 120,25 169,-2 48,-26 88,-69 119,-111zm-112 -6c30,3 66,7 122,-6l0 0c1,0 2,0 3,1 2,1 3,4 1,6 -32,46 -76,95 -129,124 -53,29 -114,37 -182,0l0 0c-2,-2 -3,-4 -1,-6 94,-128 126,-125 186,-119zm-185 125l0 0 0 0z"/>
  </g>
  <path class="fil1" d="M1553 1438c-29,74 -78,83 -106,124 -48,70 10,123 14,191 138,-59 131,-195 92,-315z"/>
  <path class="fil5" d="M1552 1451c-18,40 -42,60 -64,78 -14,11 -27,22 -37,36 -30,44 -17,81 -3,120 7,19 14,40 17,62 63,-30 94,-76 104,-130 10,-52 1,-110 -17,-166zm-69 70c23,-19 48,-40 66,-85 0,-1 1,-2 2,-3 3,-1 5,1 6,3 20,61 31,126 21,183 -11,58 -45,108 -115,139 -1,0 -1,0 -2,0 -2,0 -4,-2 -5,-4 -1,-23 -8,-45 -16,-66 -15,-41 -29,-81 4,-129 11,-15 24,-27 39,-38z"/>
  <path class="fil5" d="M2569 2323c-47,10 -93,19 -133,43 -12,7 -14,5 -5,16 16,23 15,14 38,0 31,-19 64,-34 104,-42 39,-8 129,-35 169,-53l-10 -15c-6,3 -72,31 -163,51z"/>
  <path class="fil4" d="M2212 1904c-67,53 -73,124 32,166 -13,18 -160,93 12,160 5,32 -4,56 6,69 33,57 -5,71 41,18 20,-19 3,-60 9,-114 25,-50 146,-102 13,-162 134,-47 62,-103 24,-124 159,-94 275,-294 317,-527 -33,-52 -85,-91 -9,-167 -108,-66 -60,-87 -47,-118 -79,-38 -59,-58 -45,-100 -97,-7 -79,-61 -60,-93 -152,12 -311,-286 -221,-427 -264,141 -9,498 -180,465 -77,228 388,359 108,954zm205 -975c14,0 26,12 26,26 0,14 -12,25 -26,25 -14,0 -25,-11 -25,-25 0,-14 11,-26 25,-26zm172 416c14,0 25,11 25,25 0,15 -11,26 -25,26 -14,0 -26,-11 -26,-26 0,-14 12,-25 26,-25zm-19 -116c14,0 25,12 25,26 0,14 -11,25 -25,25 -14,0 -26,-11 -26,-25 0,-14 12,-26 26,-26zm-32 -109c14,0 25,12 25,26 0,14 -11,25 -25,25 -14,0 -26,-11 -26,-25 0,-14 12,-26 26,-26zm-46 -88c15,0 26,11 26,26 0,14 -11,25 -26,25 -14,0 -25,-11 -25,-25 0,-15 11,-26 25,-26z"/>
  <path class="fil5" d="M2215 1909c-20,16 -34,34 -41,51 -4,11 -6,22 -4,32 1,10 6,21 13,31 13,15 33,29 63,41l7 3 -5 7c-2,4 -9,9 -17,16 -17,13 -41,32 -49,53 -10,24 3,52 75,81l4 1 0 4c3,15 2,28 2,39 0,12 -1,22 3,27l0 1c10,16 14,29 16,38 4,-5 9,-13 17,-22l1 0c9,-9 8,-26 6,-49 -1,-18 -2,-38 0,-61l1 -1 0 -1c7,-15 21,-28 35,-42 14,-15 28,-29 35,-44 9,-20 1,-42 -54,-67l-16 -7 16 -6c30,-10 50,-21 61,-32 9,-8 13,-17 13,-25 -1,-7 -5,-15 -11,-23 -11,-13 -27,-24 -40,-31l-10 -6 10 -6c78,-46 146,-118 199,-207 54,-89 94,-197 115,-313 -5,-6 -9,-13 -14,-20 -31,-43 -60,-82 1,-147 -86,-54 -69,-80 -51,-107 2,-3 4,-6 6,-9 -69,-34 -61,-56 -48,-91l2 -6c-45,-5 -65,-21 -70,-41 -5,-17 0,-35 8,-51 -27,0 -55,-10 -81,-26 -41,-27 -79,-71 -108,-122 -29,-51 -48,-109 -52,-164 -3,-38 1,-75 15,-106 -125,80 -110,217 -99,319 4,39 8,73 3,98 -6,30 -23,46 -64,39 -24,79 19,147 71,229 95,148 217,341 38,721l-1 1 -1 1zm-52 46c8,-20 23,-39 44,-56 175,-372 55,-560 -37,-705 -55,-87 -101,-159 -72,-247l2 -5 5 1c36,7 51,-4 56,-28 4,-22 0,-55 -4,-93 -12,-111 -28,-262 124,-343l21 -11 -13 20c-21,33 -28,74 -25,118 4,52 23,108 51,158 27,49 64,92 104,117 28,18 57,27 85,25l12 -1 -7 11c-8,15 -17,34 -12,50 4,16 23,29 68,33l8 0 -3 9c-2,5 -3,9 -5,14 -10,29 -17,46 48,77l5 2 -2 7c-3,6 -7,12 -11,17 -14,21 -27,42 55,92l7 5 -6 6c-61,60 -35,96 -6,135 5,7 11,15 16,23l1 2 0 3c-21,119 -62,229 -117,321 -53,87 -118,158 -194,205 12,7 25,17 34,28 8,10 13,20 13,32 1,12 -4,24 -17,36 -10,9 -26,19 -50,29 52,26 58,53 46,79 -7,16 -22,31 -37,46 -13,13 -26,26 -32,38 -2,21 -1,40 0,57 2,26 3,47 -11,60 -13,15 -19,24 -22,29 -3,5 -4,7 -9,5l0 0c-4,-1 -4,-4 -4,-8 0,-6 -1,-21 -15,-45 -6,-9 -6,-21 -6,-35 1,-10 1,-21 -1,-33 -79,-32 -91,-67 -79,-97 10,-25 36,-45 53,-59 3,-3 6,-5 9,-7 -27,-12 -46,-25 -58,-41 -10,-11 -15,-24 -17,-37 -2,-13 0,-26 5,-39zm254 -1032c9,0 17,3 22,9 6,6 10,14 10,23 0,9 -4,17 -10,23 -5,6 -13,9 -22,9 -8,0 -16,-3 -22,-9 -5,-6 -9,-14 -9,-23 0,-9 4,-17 9,-23 6,-6 14,-9 22,-9zm15 19c-4,-4 -9,-6 -15,-6 -5,0 -10,2 -14,6 -3,3 -5,8 -5,13 0,5 2,10 5,13 4,4 9,6 14,6 6,0 11,-2 15,-6 3,-3 5,-8 5,-13 0,-5 -2,-10 -5,-13zm157 396c8,0 16,4 22,9 6,6 9,14 9,23 0,9 -3,18 -9,23 -6,6 -14,10 -22,10 -9,0 -16,-4 -22,-10 -6,-5 -9,-14 -9,-23 0,-9 3,-17 9,-23 6,-5 13,-9 22,-9zm14 19c-3,-3 -8,-5 -14,-5 -6,0 -11,2 -14,5 -4,4 -6,8 -6,13 0,5 2,10 6,13 3,4 8,6 14,6 6,0 11,-2 14,-6 4,-3 6,-8 6,-13 0,-5 -2,-9 -6,-13zm-33 -134c8,0 16,3 22,9 5,5 9,14 9,23 0,9 -4,17 -9,23 -6,5 -14,9 -22,9 -9,0 -17,-4 -22,-9 -6,-6 -10,-14 -10,-23 0,-9 4,-18 10,-23 5,-6 13,-9 22,-9zm14 19c-4,-4 -9,-6 -14,-6 -6,0 -11,2 -15,6 -3,3 -5,8 -5,13 0,5 2,9 5,13 4,3 9,6 15,6 5,0 10,-3 14,-6 3,-4 5,-8 5,-13 0,-5 -2,-10 -5,-13zm-46 -128c8,0 16,3 22,9 6,6 9,14 9,23 0,9 -3,17 -9,23 -6,5 -14,9 -22,9 -9,0 -16,-4 -22,-9 -6,-6 -9,-14 -9,-23 0,-9 3,-17 9,-23 6,-6 13,-9 22,-9zm14 19c-3,-4 -8,-6 -14,-6 -6,0 -11,2 -14,6 -4,3 -6,8 -6,13 0,5 2,9 6,13 3,3 8,6 14,6 6,0 11,-3 14,-6 4,-4 6,-8 6,-13 0,-5 -2,-10 -6,-13zm-60 -108c9,0 17,4 22,10 6,5 10,14 10,23 0,9 -4,17 -10,23 -5,5 -13,9 -22,9 -8,0 -16,-4 -21,-9 -6,-6 -10,-14 -10,-23 0,-9 4,-18 10,-23 5,-6 13,-10 21,-10zm15 20c-4,-4 -9,-6 -15,-6 -5,0 -10,2 -14,6 -3,3 -5,8 -5,13 0,5 2,9 5,13 4,3 9,5 14,5 6,0 11,-2 15,-5 3,-4 5,-8 5,-13 0,-5 -2,-10 -5,-13z"/>
  <path class="fil7" d="M2227 2294l115 -4c16,24 27,96 -10,169 0,95 22,209 3,301 -15,77 -58,142 -106,147 -56,6 -93,-48 -40,-104 32,-35 70,-70 70,-98 -43,-80 8,-122 -6,-244 -45,-58 -36,-146 -26,-167z"/>
  <path class="fil5" d="M2227 2287l115 -3 3 0 2 2c9,15 17,46 15,84 -1,28 -8,59 -24,91 0,32 3,67 5,102 5,68 10,137 -2,198 -8,41 -24,78 -43,106 -20,27 -43,44 -68,47 -16,2 -30,-1 -42,-7 -11,-6 -19,-14 -24,-25l0 0c-6,-10 -8,-23 -5,-36 2,-15 11,-32 26,-48 5,-6 10,-11 15,-17 27,-27 52,-54 53,-74 -24,-47 -19,-80 -11,-123 5,-32 11,-69 6,-120 -18,-24 -28,-52 -32,-79 -7,-42 0,-81 6,-95l2 -3 3 0zm112 10l-108 3c-5,15 -9,47 -4,82 4,26 13,52 31,74l1 2 0 2c6,55 0,93 -6,126 -7,41 -12,73 11,116l1 1 0 2c0,27 -28,56 -57,86 -5,6 -11,12 -15,17 -14,14 -21,28 -23,40 -2,10 0,20 4,27l0 0c4,8 10,15 19,19 10,6 22,8 36,7 22,-3 42,-19 60,-43 18,-26 33,-61 41,-100 12,-59 7,-127 2,-194 -3,-36 -6,-71 -5,-105l0 -1 0 -2c15,-30 22,-60 24,-87 2,-32 -4,-58 -12,-72z"/>
  <path class="fil4" d="M2830 561c-2,42 -1,27 -5,130 -41,16 -27,10 -123,50 -40,7 -69,-69 -23,-74 -48,-49 -2,-117 58,-95 5,-50 82,-49 93,-11z"/>
  <path class="fil5" d="M2836 562c-1,28 -1,31 -3,61l-2 68c-1,3 -2,4 -4,5l0 0c-13,5 -20,8 -27,11 -16,6 -30,12 -96,40 0,0 -1,0 -1,0l0 0c-19,3 -36,-10 -45,-26 -4,-6 -6,-12 -7,-18 -1,-7 -1,-13 0,-19 2,-9 8,-17 18,-20 -11,-15 -16,-30 -16,-45 1,-11 4,-21 10,-30 5,-9 13,-16 23,-21 13,-6 29,-8 46,-4 3,-12 11,-22 20,-28 8,-5 18,-7 27,-8 10,-1 19,0 28,4 14,5 25,14 28,28 1,1 1,1 1,2zm-14 60c1,-31 1,-33 2,-60 -3,-9 -11,-16 -21,-20 -7,-2 -15,-3 -22,-3 -8,1 -16,3 -22,7 -9,5 -15,14 -17,26 0,1 0,1 0,2 -1,3 -4,4 -7,3 -16,-6 -31,-5 -43,1 -8,4 -15,10 -20,18 -4,7 -7,15 -7,24 -1,14 5,29 18,43 1,1 2,2 2,3 1,4 -1,6 -5,7 -10,1 -16,7 -18,14 -1,4 -1,9 0,14 1,5 3,10 6,14 6,13 18,23 32,21 66,-28 80,-34 95,-40 7,-2 14,-5 24,-9l3 -65z"/>
  <path class="fil2" d="M2708 617c26,9 42,-12 111,12 1,-27 -9,-65 22,-99 6,48 106,106 37,203 -71,96 -150,23 -200,36 16,-57 62,-47 83,-57 -36,-40 -36,-72 -53,-95z"/>
  <path class="fil5" d="M2710 611c8,4 16,3 26,2 17,-2 39,-4 78,8 0,-3 -1,-7 -1,-11 -1,-25 -2,-55 24,-84 2,-2 6,-2 8,0 1,1 2,3 2,4l0 0c2,13 12,28 23,45 28,41 63,91 12,161l0 1c-50,68 -104,54 -150,43 -20,-5 -38,-9 -53,-6 -3,1 -6,-1 -7,-4 0,-1 0,-2 0,-3l0 0c13,-46 44,-51 69,-56 3,0 7,-1 11,-2 -20,-23 -27,-42 -34,-60 -5,-11 -9,-21 -15,-29 -2,-3 -1,-6 1,-8 2,-1 4,-1 6,-1zm28 13c-7,1 -13,1 -19,1 4,6 7,13 9,21 7,17 16,38 37,62 1,1 1,1 2,2 1,3 0,6 -3,7 -6,3 -13,4 -21,6 -19,3 -44,8 -57,39 15,-1 31,3 48,7 43,10 93,23 139,-39l0 -1c46,-63 14,-110 -12,-148 -9,-13 -18,-26 -22,-38 -16,22 -15,47 -14,68 0,6 0,12 0,18 0,1 0,2 0,2 -1,3 -4,5 -7,4 -41,-15 -63,-13 -80,-11z"/>
  <path class="fil4" d="M3029 702c-8,47 -5,29 -23,144 -48,13 -32,8 -146,40 -46,2 -68,-86 -15,-85 -49,-62 12,-132 77,-99 12,-55 99,-44 107,0z"/>
  <path class="fil5" d="M3034 703c-5,34 -5,36 -11,69l-12 75c0,2 -2,4 -3,4 -15,4 -24,7 -32,9 -19,5 -35,9 -114,32 -1,0 -1,0 -1,0l0 0c-22,1 -39,-15 -47,-35 -3,-7 -5,-14 -5,-21 -1,-7 0,-14 2,-20 4,-10 12,-17 24,-20 -12,-17 -15,-35 -13,-52 2,-12 7,-23 14,-32 8,-9 18,-16 29,-20 16,-6 34,-6 53,2 5,-14 15,-24 26,-29l1 0c9,-5 20,-6 30,-6l0 0c11,0 22,3 31,8 15,7 25,19 28,34 0,1 0,2 0,2zm-22 67c6,-36 6,-39 11,-68 -2,-11 -10,-20 -21,-25 -8,-4 -17,-7 -26,-7l0 0 0 0c-9,0 -18,1 -26,5l-1 0c-10,5 -19,14 -22,28l0 0c0,1 0,1 0,1 -2,3 -5,4 -8,3 -18,-10 -35,-10 -50,-5 -9,4 -18,10 -24,18 -6,7 -10,16 -12,27 -2,15 2,33 16,50l0 0c1,1 1,2 1,4 0,3 -2,5 -5,5 -13,0 -20,6 -23,15 -2,4 -3,10 -2,15 0,6 2,12 4,17 6,15 19,28 35,28 78,-22 94,-27 113,-32 8,-2 16,-4 29,-7l11 -72z"/>
  <path class="fil2" d="M2883 748c28,14 50,-8 125,28 5,-30 -2,-74 37,-107 1,54 107,132 15,231 -92,98 -172,7 -231,14 26,-61 77,-45 103,-53 -37,-49 -32,-84 -49,-113z"/>
  <path class="fil5" d="M2886 743c9,5 19,5 30,5 19,0 44,1 87,20 1,-4 1,-9 1,-13 2,-29 5,-63 38,-90 2,-2 5,-2 7,1 1,1 2,2 2,3l0 0c0,15 10,34 21,54 26,49 58,110 -8,181l0 0c-65,69 -124,47 -174,29l0 0c-22,-8 -42,-16 -60,-14 -3,1 -5,-1 -6,-4 0,-1 0,-2 0,-3l0 0c21,-49 56,-51 84,-53 5,0 10,-1 14,-1 -19,-29 -25,-52 -31,-72 -3,-13 -6,-25 -12,-35 -2,-3 -1,-6 1,-8 2,-1 4,-1 6,0l0 0zm31 16c-9,0 -16,0 -23,-1 3,8 5,16 8,25 6,21 12,46 34,75l0 0c0,1 1,1 1,2 1,3 -1,6 -4,7 -7,2 -15,2 -24,3 -23,1 -52,3 -71,38 17,1 36,7 55,14l0 0c47,18 103,38 163,-26l0 0c61,-66 31,-122 6,-168 -9,-17 -17,-33 -21,-47 -22,23 -24,51 -26,75 0,8 -1,15 -2,21 0,1 0,1 0,2 -1,3 -5,4 -8,2 -44,-21 -69,-22 -88,-22z"/>
  <path class="fil4" d="M3231 939c-26,42 -17,26 -81,128 -53,-7 -35,-6 -161,-21 -45,-17 -32,-109 20,-87 -23,-78 66,-120 116,-63 35,-47 116,-1 106,43z"/>
  <path class="fil5" d="M3235 942c-19,31 -20,32 -38,61l-42 67c-1,2 -4,2 -6,2 -16,-2 -25,-3 -35,-5 -20,-3 -38,-5 -125,-16 0,0 -1,0 -2,0 -21,-8 -31,-30 -31,-51 0,-7 1,-15 3,-22 2,-6 6,-13 10,-18 8,-8 19,-12 32,-10 -4,-20 0,-38 8,-52 6,-11 15,-20 26,-25 11,-6 24,-9 36,-9 19,0 38,8 54,24 10,-12 24,-17 38,-18 11,0 23,3 33,8 11,5 21,12 28,20 10,13 16,28 12,43 0,1 0,1 -1,1l0 0zm-47 54c20,-32 22,-34 37,-59 3,-11 -1,-22 -9,-32 -7,-7 -15,-13 -24,-17 -9,-4 -19,-7 -28,-7 -13,1 -25,6 -34,18 0,1 -1,1 -1,1 -2,2 -6,2 -8,0 -14,-17 -32,-25 -49,-25 -11,0 -22,2 -31,7 -9,5 -17,13 -22,22 -8,14 -11,32 -5,53l0 0c1,1 1,3 0,4 -1,3 -4,4 -7,3 -13,-6 -23,-3 -29,4 -4,4 -7,9 -8,14 -2,6 -3,12 -3,19 0,16 8,33 23,39 87,11 105,13 125,16 9,2 17,3 32,5l41 -65z"/>
  <path class="fil2" d="M3068 922c21,24 51,12 108,75 17,-27 28,-69 79,-84 -21,49 50,163 -77,218 -127,55 -169,-61 -228,-77 49,-46 92,-11 119,-9 -15,-59 3,-90 -1,-123z"/>
  <path class="fil5" d="M3072 918c7,8 16,12 27,17 19,8 42,18 76,53 2,-4 4,-8 7,-12 13,-26 29,-56 71,-69 3,-1 6,1 7,4 1,1 0,3 0,4 -6,14 -4,35 -1,58 6,55 13,124 -79,164l0 0c-90,38 -138,-6 -179,-42 -18,-16 -34,-31 -52,-36 -3,-1 -5,-4 -4,-7 0,-1 1,-2 2,-3 39,-36 73,-24 101,-15 5,2 10,3 14,4 -7,-33 -4,-58 -1,-79 1,-13 3,-25 1,-37 0,-3 2,-5 5,-6 2,0 4,1 5,2l0 0zm23 27c-8,-3 -15,-6 -21,-11 0,9 -1,18 -2,27 -3,22 -7,47 3,83l0 0c0,1 0,1 0,2 0,3 -3,5 -6,5 -7,-1 -15,-4 -24,-7 -23,-8 -52,-17 -84,8 16,7 31,20 47,35 39,34 84,75 167,39l1 0c84,-36 77,-101 72,-153 -2,-19 -4,-37 -1,-51 -31,13 -44,38 -56,59 -3,7 -6,13 -10,19l0 0c0,0 -1,1 -1,1 -2,2 -6,2 -8,-1 -34,-37 -58,-47 -77,-55z"/>
  <path class="fil4" d="M3363 1187c-31,39 -20,24 -96,118 -52,-13 -34,-10 -159,-39 -45,-21 -21,-112 29,-85 -14,-80 80,-111 124,-49 40,-43 118,12 102,55z"/>
  <g>
   <path class="fil5" d="M3367 1191c-23,29 -25,31 -45,56 -11,13 -26,32 -51,62 -1,2 -3,2 -5,1 -17,-4 -26,-6 -35,-8 -20,-6 -38,-10 -124,-30 -1,0 -1,-1 -2,-1l0 0c-20,-10 -28,-32 -26,-54 1,-7 3,-14 6,-21 3,-7 7,-12 12,-17 9,-7 20,-11 34,-6 -2,-21 3,-38 13,-51 7,-11 17,-18 29,-23 12,-5 25,-7 37,-5 19,3 38,12 52,30 12,-11 26,-14 41,-13 11,1 23,5 33,12 10,6 19,14 25,23 9,14 12,29 7,44 0,0 -1,1 -1,1zm-54 48c25,-30 27,-32 45,-54 3,-11 1,-23 -6,-33 -5,-8 -13,-15 -22,-20 -8,-5 -18,-9 -28,-10 -13,-1 -26,3 -36,14 0,0 -1,1 -1,1 -3,2 -6,1 -8,-2 -13,-18 -30,-27 -47,-30 -11,-1 -22,0 -32,4 -10,4 -19,11 -25,19 -10,13 -14,31 -10,53l0 0c0,1 0,2 -1,3 -1,3 -4,4 -7,2 -13,-7 -23,-5 -31,2 -4,3 -7,8 -9,13 -3,5 -4,12 -5,18 -1,17 4,34 19,42 86,20 104,25 124,30 9,2 18,4 32,8 23,-29 38,-47 48,-60zm54 -48c-1,2 -4,2 -6,2l6 -2z"/>
  </g>
  <path class="fil2" d="M3201 1154c19,27 51,19 104,89 20,-25 36,-67 91,-77 -28,49 33,174 -105,215 -138,41 -167,-82 -227,-106 56,-41 96,0 124,6 -9,-63 14,-93 13,-127z"/>
  <g>
   <path class="fil5" d="M3206 1151c6,9 15,14 26,20 18,10 42,23 73,63 2,-3 5,-7 8,-12 17,-24 36,-53 82,-61 3,-1 6,1 6,4 1,2 0,3 0,4 -8,14 -8,36 -8,59 -1,58 -1,129 -100,159l0 0 0 0 0 0c-98,28 -143,-22 -181,-64 -17,-18 -32,-36 -50,-42 -2,-2 -4,-5 -3,-8 0,-1 1,-2 2,-2l0 0c44,-33 79,-17 106,-4 6,2 10,4 15,6 -4,-35 2,-60 8,-81 3,-14 6,-26 6,-38 -1,-3 2,-6 5,-5 2,0 4,1 5,2l0 0zm21 30c-8,-4 -15,-8 -21,-13 -1,9 -3,17 -6,27 -5,22 -11,47 -6,85l0 0c0,1 0,1 0,2 -1,3 -3,5 -6,4 -8,-2 -16,-5 -25,-9 -23,-11 -52,-24 -88,-2 16,9 30,24 45,41 36,40 79,87 169,60 92,-28 92,-94 93,-148 0,-20 0,-39 4,-54 -33,10 -50,34 -64,55 -4,7 -9,13 -13,18l0 0c0,0 -1,1 -1,1 -2,2 -6,1 -8,-1 -31,-43 -55,-56 -73,-66zm62 195l0 0 0 0z"/>
  </g>
  <path class="fil4" d="M3404 1517c-46,19 -29,12 -143,60 -43,-36 -27,-25 -130,-107 -31,-40 33,-109 66,-62 24,-77 126,-62 138,14 57,-20 104,64 69,95z"/>
  <path class="fil5" d="M3406 1522c-32,14 -35,15 -67,28l-76 32c-2,1 -4,0 -5,-1l0 0c-13,-11 -21,-18 -29,-24 -16,-14 -31,-26 -101,-83 -1,-1 -1,-1 -1,-1 -14,-18 -12,-40 -1,-58 4,-6 9,-12 14,-17l0 0c6,-4 12,-8 19,-10 12,-3 25,-1 36,10 8,-19 20,-31 34,-39 12,-6 26,-8 39,-7 13,1 26,6 37,13 16,11 29,28 34,50 17,-4 33,0 46,8 10,7 19,16 25,26 6,11 10,22 11,33 1,15 -2,29 -13,39 -1,0 -1,1 -2,1zm-72 18c35,-15 37,-16 67,-28 7,-7 10,-18 9,-29 -1,-10 -4,-19 -10,-28 -5,-9 -12,-17 -21,-23 -12,-7 -26,-10 -42,-5l0 0c0,0 -1,0 -1,0 -3,1 -6,-2 -6,-5 -4,-21 -15,-38 -30,-48 -10,-6 -21,-10 -33,-11 -11,-1 -22,1 -32,6 -14,7 -26,21 -32,41l0 0c-1,1 -1,2 -2,3 -3,2 -6,1 -8,-2 -9,-12 -20,-15 -30,-12 -6,1 -11,4 -15,8 -5,4 -9,9 -13,14 -8,14 -10,31 0,45 71,57 85,69 101,83 7,5 14,11 26,21l72 -30z"/>
  <path class="fil2" d="M3269 1413c6,33 39,40 55,127 31,-13 65,-43 120,-27 -48,31 -49,168 -196,142 -146,-28 -117,-149 -161,-197 70,-11 89,43 112,61 21,-59 56,-75 70,-106z"/>
  <g>
   <path class="fil5" d="M3275 1413c1,11 7,19 15,30 12,17 28,39 38,89 5,-2 9,-5 13,-7 27,-14 59,-31 104,-17 3,1 5,4 4,7 0,1 -1,2 -2,3 -13,9 -23,28 -34,48 -27,51 -60,113 -165,94l0 0 0 0c-104,-19 -123,-84 -139,-138 -7,-24 -13,-46 -26,-61 -2,-2 -2,-5 0,-7 1,-1 2,-2 3,-2 56,-8 81,22 100,45 4,5 7,9 11,13 13,-33 30,-52 44,-68 10,-11 18,-20 23,-31 1,-3 5,-4 7,-2 2,0 3,2 4,4zm6 36c-5,-8 -10,-14 -13,-22 -6,8 -12,15 -18,22 -15,17 -33,36 -45,72 0,1 -1,1 -1,2 -2,2 -5,2 -8,0 -6,-4 -12,-11 -18,-19 -17,-20 -37,-45 -81,-42 11,16 17,36 23,57 15,52 33,112 129,130l0 0c98,18 129,-41 154,-88 9,-18 18,-34 29,-45 -36,-7 -62,7 -85,19 -7,3 -14,7 -20,10l0 0c-1,0 -1,0 -2,0 -3,0 -6,-2 -6,-5 -10,-52 -26,-74 -38,-91zm166 69c-1,1 -3,1 -4,1l4 -1z"/>
  </g>
  <path class="fil4" d="M3349 1822c-52,2 -33,1 -161,7 -30,-48 -19,-32 -91,-147 -18,-48 69,-91 86,-35 50,-65 145,-15 131,61 63,0 80,96 35,114z"/>
  <path class="fil5" d="M3350 1827c-36,2 -38,2 -77,3l-85 4c-2,0 -4,-1 -5,-3 -9,-14 -14,-23 -19,-32 -12,-18 -22,-35 -72,-114 0,-1 0,-1 0,-2 -8,-20 2,-40 18,-53 6,-5 12,-9 19,-11 8,-3 15,-4 22,-4 14,1 26,8 34,22 14,-15 30,-23 47,-25 14,-2 28,1 41,7 13,6 24,15 32,26 12,16 18,36 15,58 19,2 34,12 44,25 7,10 12,21 14,33 2,12 2,24 -1,34 -3,14 -12,26 -26,31 0,1 -1,1 -1,1l0 0zm-78 -7c38,-2 41,-2 76,-4 10,-4 16,-13 19,-24 3,-9 3,-19 1,-30 -2,-10 -6,-20 -13,-28 -9,-12 -23,-21 -40,-21l0 0c-1,0 -1,0 -2,0 -2,-1 -4,-4 -4,-7 4,-21 -1,-40 -12,-55 -7,-10 -17,-18 -28,-23 -11,-5 -23,-7 -35,-6 -17,2 -33,11 -46,28 -1,1 -2,2 -3,2 -3,1 -6,-1 -7,-4 -4,-15 -15,-22 -27,-22 -6,-1 -12,0 -18,3 -6,2 -11,5 -16,9 -13,11 -21,26 -16,42 50,78 60,95 71,114 5,8 10,16 18,30l82 -4z"/>
  <path class="fil2" d="M3252 1677c-6,33 25,51 11,139 34,-2 78,-18 127,16 -57,13 -106,143 -242,67 -135,-77 -64,-183 -91,-243 74,14 73,72 90,97 41,-49 80,-52 105,-76z"/>
  <g>
   <path class="fil5" d="M3257 1678c-2,12 1,21 5,34 6,21 14,47 7,98 5,0 10,-1 16,-2 31,-4 68,-9 108,20 2,2 3,5 1,7 0,1 -2,2 -3,2l0 0c-16,4 -32,18 -51,35l0 0c-43,38 -97,86 -194,31l-1 0c-94,-54 -91,-121 -87,-179 1,-25 2,-48 -6,-66 -1,-3 0,-6 3,-7 1,0 2,0 3,0l0 0c58,11 72,48 83,77 2,6 4,11 7,16 24,-27 47,-39 67,-50 13,-6 24,-12 33,-21 2,-2 6,-2 8,0 1,2 2,3 1,5l0 0zm-5 36c-3,-9 -5,-17 -6,-25 -8,5 -16,10 -26,15 -20,10 -45,23 -69,53l0 0c0,0 -1,0 -1,1 -3,1 -6,0 -8,-2 -4,-7 -7,-16 -11,-25 -9,-25 -21,-56 -66,-68 5,18 4,40 3,63 -3,54 -7,118 82,168l0 0c91,51 142,6 183,-30l0 0c16,-14 30,-27 45,-33 -33,-20 -64,-16 -91,-12 -8,1 -16,2 -23,2 -1,0 -2,0 -2,0 -3,-1 -5,-4 -4,-6 8,-53 0,-80 -6,-101zm-107 189c-2,-1 -3,-4 -2,-7l2 7z"/>
  </g>
  <path class="fil4" d="M3180 2102c-54,-16 -34,-10 -169,-50 -13,-59 -7,-39 -40,-178 -1,-54 104,-66 101,-4 75,-47 155,37 113,107 65,23 48,124 -5,125z"/>
  <path class="fil5" d="M3179 2108c-39,-12 -41,-13 -80,-24 -19,-6 -46,-14 -89,-27 -2,0 -4,-2 -4,-4 -4,-18 -6,-29 -9,-39 -4,-22 -9,-43 -32,-139 0,-1 0,-1 0,-2 0,-23 17,-39 37,-46 8,-3 16,-4 25,-4 8,0 16,1 23,4 14,5 25,16 27,34 20,-11 41,-12 59,-8 15,4 29,11 40,22 11,11 19,24 23,39 5,19 4,40 -6,60 19,9 30,24 36,42 4,11 4,24 3,36 -2,13 -6,24 -13,33 -9,14 -22,22 -39,23 0,0 -1,0 -1,0zm-78 -35c42,13 45,13 79,24 13,-1 23,-8 30,-18 5,-8 9,-18 11,-29 1,-10 0,-21 -3,-32 -5,-15 -16,-29 -34,-36 -1,0 -1,0 -2,0 -2,-2 -3,-6 -2,-8 12,-19 13,-40 8,-58 -3,-12 -11,-24 -20,-33 -9,-9 -21,-16 -34,-19 -18,-5 -38,-2 -59,11 -1,0 -2,1 -3,1 -3,-1 -6,-3 -5,-6 0,-17 -8,-28 -20,-33 -6,-2 -13,-3 -20,-3 -7,0 -14,1 -21,4 -16,5 -30,18 -30,36 23,95 27,115 32,138 2,9 4,19 8,36 41,12 67,20 85,25z"/>
  <path class="fil2" d="M3132 1924c-18,31 7,60 -39,142 36,10 88,10 125,61 -63,-8 -160,104 -272,-20 -112,-124 -1,-204 -7,-274 71,41 49,98 58,129 59,-34 101,-23 135,-38z"/>
  <path class="fil5" d="M3137 1927c-6,11 -7,22 -7,35 -1,23 -3,53 -28,100 5,1 11,3 17,4 33,7 73,16 104,58 2,3 1,6 -1,8 -2,1 -3,1 -4,1l0 0c-18,-2 -40,6 -65,16 -59,22 -131,50 -211,-38l0 -1 0 0c-79,-87 -51,-153 -27,-208l0 0c11,-25 21,-48 19,-68 -1,-3 2,-6 5,-6 1,0 2,0 3,1 56,32 57,73 58,106 0,7 0,13 1,18 34,-18 63,-22 87,-25 16,-2 29,-4 42,-9 3,-1 6,0 7,3 1,2 1,4 0,5l0 0zm-18 34c0,-10 1,-19 3,-27 -10,2 -21,4 -32,5 -25,3 -54,7 -90,28l0 0c-1,0 -1,0 -2,1 -3,0 -6,-2 -7,-5 -2,-8 -2,-18 -2,-28 -1,-28 -2,-64 -44,-92 -1,21 -10,41 -19,63l0 1c-23,52 -50,114 24,196 75,83 143,57 199,35 21,-8 40,-15 58,-16 -28,-32 -61,-39 -90,-45 -9,-2 -17,-4 -25,-6 0,0 -1,0 -1,-1 -3,-1 -4,-5 -2,-7 27,-50 29,-79 30,-102z"/>
  <path class="fil4" d="M2958 2333c-58,-23 -37,-15 -181,-72 -9,-66 -4,-43 -27,-199 5,-60 122,-62 112,6 88,-45 168,55 115,128 69,32 39,141 -19,137z"/>
  <path class="fil5" d="M2956 2338c-38,-15 -41,-16 -86,-34 -20,-8 -49,-20 -95,-38 -2,-1 -4,-3 -4,-5 -3,-21 -4,-33 -5,-43 -3,-26 -6,-49 -22,-156 0,-1 0,-1 0,-2 2,-25 22,-40 46,-46 8,-2 18,-3 27,-2 9,0 18,3 26,7 14,7 25,20 25,40 24,-10 47,-10 67,-3 16,6 30,16 41,28 11,13 19,29 22,45 4,21 0,44 -13,65 20,11 31,29 35,49 3,13 3,27 0,40 -3,13 -9,25 -17,35 -11,13 -27,22 -45,20 0,0 -1,0 -2,0l0 0zm-82 -44c42,16 45,18 85,33 14,1 26,-6 35,-17 7,-8 12,-18 15,-30 3,-11 3,-24 1,-35 -4,-18 -15,-35 -35,-44l0 0c-1,0 -1,0 -1,-1 -3,-2 -4,-5 -2,-7 15,-20 19,-42 15,-62 -3,-15 -10,-29 -19,-40 -10,-11 -22,-20 -36,-24 -20,-7 -43,-7 -67,6l0 0c-1,0 -2,0 -3,0 -3,-1 -6,-3 -5,-6 3,-19 -6,-32 -19,-38 -6,-4 -14,-6 -22,-6 -7,-1 -16,0 -23,2 -19,4 -36,17 -38,37 16,107 19,130 22,155 1,11 2,22 5,40l92 37z"/>
  <path class="fil2" d="M2924 2133c-23,32 1,66 -58,151 39,15 96,20 132,80 -69,-15 -188,97 -300,-50 -110,-147 21,-223 21,-300 74,51 45,112 51,147 69,-32 114,-15 154,-28z"/>
  <path class="fil5" d="M2928 2136c-8,12 -10,24 -12,38 -3,25 -8,57 -41,107 6,3 12,5 19,7 36,11 79,24 109,74 1,2 0,6 -2,7 -1,1 -3,1 -4,1 -20,-5 -45,2 -74,10 -66,19 -149,42 -229,-62l0 0 0 0c-77,-104 -40,-173 -8,-231 14,-26 27,-50 28,-73 0,-3 2,-6 5,-5 1,0 2,0 3,1l0 0c59,40 55,86 53,121l0 0c0,8 -1,15 -1,22 41,-17 73,-19 100,-20l0 0c18,0 33,-1 48,-5 2,-1 6,0 7,3 0,2 0,4 -1,5zm-23 36c2,-11 3,-21 7,-31 -11,3 -23,3 -37,3l0 1c-28,1 -61,2 -103,21l0 0c0,0 -1,0 -2,0 -3,1 -5,-2 -6,-5 -1,-9 -1,-19 0,-31l0 0 0 0c2,-31 5,-70 -40,-106 -3,23 -15,45 -28,68 -30,56 -66,122 7,219l0 0c75,99 153,77 217,59 25,-7 47,-13 67,-13 -27,-38 -64,-49 -96,-59 -9,-3 -18,-6 -27,-9 0,0 -1,0 -1,-1 -2,-1 -3,-5 -1,-7 35,-52 40,-84 43,-109z"/>
  <path class="fil5" d="M737 3779l29 -13 41 88 -91 43c-19,-8 -35,-17 -48,-29 -13,-12 -23,-25 -30,-40 -10,-21 -14,-42 -11,-64 2,-21 11,-41 27,-59 15,-17 35,-32 59,-43 24,-11 48,-17 73,-18 25,-2 46,4 63,15 18,11 31,28 41,48 7,16 11,31 11,46 0,15 -4,28 -11,40 -7,11 -18,23 -33,34l-19 -21c11,-9 19,-18 24,-25 5,-9 7,-18 7,-29 1,-10 -2,-21 -7,-31 -6,-13 -13,-23 -22,-30 -9,-7 -18,-12 -28,-14 -10,-3 -20,-3 -30,-2 -18,1 -36,6 -53,15 -22,10 -39,22 -51,35 -12,13 -18,28 -19,43 -2,16 1,31 7,45 6,12 14,22 25,31 10,9 20,15 29,18l46 -21 -29 -62zm-31 173l237 -131 81 146 -28 16 -66 -120 -73 40 62 112 -27 16 -62 -112 -81 44 69 125 -28 15 -84 -151zm108 186l219 -159 27 37 -123 157c-11,15 -20,26 -26,33 10,-4 24,-9 42,-16l185 -66 25 34 -219 159 -18 -24 184 -133 -223 78 -16 -22 146 -189 -186 135 -17 -24zm145 199l258 -119 23 24 -133 254 -24 -26 41 -75 -66 -71 -77 37 -22 -24zm127 -27l53 58 39 -69c11,-21 21,-38 29,-50 -14,10 -30,18 -46,26l-75 35zm38 203l174 -207 23 19 -71 86 92 77 71 -85 24 20 -174 207 -23 -20 81 -98 -92 -77 -82 98 -23 -20zm255 199l127 -239 91 49c18,9 30,19 38,28 7,10 10,21 10,35 0,14 -3,27 -10,41 -9,16 -22,28 -37,35 -16,6 -34,6 -55,-1 5,8 8,15 10,20 3,13 5,28 5,44l1 84 -34 -18 -1 -64c0,-19 -1,-33 -2,-43 -1,-11 -2,-18 -5,-24 -2,-5 -5,-9 -9,-13 -3,-2 -7,-5 -14,-9l-32 -16 -56 106 -27 -15zm98 -119l58 31c12,7 23,10 31,11 9,1 17,-1 24,-6 7,-4 13,-11 17,-18 6,-12 7,-23 4,-34 -3,-11 -12,-20 -27,-28l-65 -35 -42 79zm115 225l106 -249 28 12 -106 249 -28 -12zm79 30l88 -256 83 29c14,5 25,10 32,14 10,6 18,13 23,21 6,8 9,19 9,31 1,12 -1,24 -5,37 -7,22 -20,38 -37,49 -17,11 -41,11 -72,1l-56 -20 -36 104 -29 -10zm75 -124l57 20c19,6 34,6 44,1 11,-5 19,-15 24,-30 3,-11 4,-21 2,-30 -2,-9 -6,-16 -13,-22 -4,-3 -13,-7 -26,-11l-56 -19 -32 91zm83 180l144 -246 32 7 36 284 -34 -7 -9 -86 -95 -20 -42 75 -32 -7zm89 -95l77 17 -8 -79c-3,-23 -4,-43 -5,-58 -6,17 -14,33 -23,48l-41 72zm150 139l24 -269 30 2 -9 111 120 10 9 -110 31 3 -24 269 -30 -3 11 -127 -120 -10 -11 127 -31 -3zm323 13l-42 -267 101 -16c21,-4 37,-4 48,-1 11,4 21,11 30,22 8,11 13,24 15,39 3,18 1,35 -8,50 -8,15 -23,25 -45,32 9,4 16,7 21,11 10,8 20,18 31,31l51 67 -38 6 -39 -51c-12,-15 -21,-26 -28,-33 -7,-8 -13,-13 -18,-16 -5,-2 -10,-4 -15,-5 -4,0 -9,1 -17,2l-35 5 19 119 -31 5zm7 -154l65 -11c14,-2 24,-5 32,-10 7,-4 12,-11 15,-19 3,-8 4,-16 2,-25 -2,-12 -7,-22 -16,-29 -10,-7 -23,-9 -40,-6l-72 11 14 89zm223 117l-74 -260 161 -46 9 30 -132 38 23 80 123 -36 9 31 -123 35 25 88 137 -39 8 31 -166 48zm208 -63l-101 -251 81 -33c14,-5 25,-9 34,-10 11,-3 21,-2 31,1 9,2 18,8 27,17 8,8 15,19 20,31 9,22 10,42 5,62 -6,19 -24,35 -54,47l-56 22 42 102 -29 12zm-25 -143l56 -23c18,-7 30,-16 34,-27 5,-11 4,-24 -2,-39 -4,-10 -10,-18 -17,-24 -8,-6 -16,-8 -24,-7 -6,0 -15,3 -28,8l-55 22 36 90zm224 60l-131 -236 147 -81 15 28 -120 66 40 72 113 -62 15 28 -112 62 44 81 125 -69 15 28 -151 83zm188 -105l-162 -216 24 -18 67 89 96 -73 -67 -89 25 -18 163 216 -25 18 -77 -101 -96 72 77 102 -25 18zm253 -203l-198 -184 70 -75c14,-16 27,-25 38,-30 10,-4 23,-5 36,-1 13,3 25,10 36,21 14,13 23,27 25,44 2,17 -3,35 -15,53 8,-2 16,-4 22,-4 13,0 28,2 44,6l81 21 -26 28 -62 -16c-18,-5 -32,-8 -43,-9 -10,-2 -18,-2 -23,-1 -6,1 -11,3 -15,5 -3,2 -7,6 -13,12l-24 26 88 82 -21 22zm-90 -125l45 -49c10,-10 16,-19 19,-27 3,-8 3,-16 0,-24 -2,-8 -7,-15 -13,-21 -10,-9 -20,-13 -31,-13 -12,0 -23,6 -35,19l-50 54 65 61zm248 -41l-167 -231 20 -27 274 83 -20 28 -83 -26 -57 78 52 69 -19 26zm-51 -119l46 -64 -75 -24c-22,-8 -41,-14 -55,-20 13,13 24,26 35,40l49 68zm192 -73l-237 -131 42 -77c8,-13 14,-23 20,-29 7,-9 15,-16 25,-19 9,-4 19,-5 31,-4 13,1 24,5 36,12 20,11 34,26 42,45 8,18 4,42 -12,71l-29 52 96 53 -14 27zm-110 -96l29 -52c10,-18 13,-32 10,-43 -4,-12 -13,-21 -26,-29 -10,-5 -20,-8 -29,-8 -10,1 -17,4 -24,10 -3,3 -9,11 -15,23l-29 52 84 47zm216 -99l-245 -114 13 -28 245 115 -13 27zm37 -76l-254 -92 11 -29 104 38 41 -113 -104 -38 11 -29 254 92 -11 29 -120 -44 -41 114 120 43 -11 29z"/>
  <path class="fil5" d="M736 3776l28 -13 3 -1 1 2 42 89 1 3 -2 1 -91 43 -1 0 -2 0c-9,-4 -18,-9 -26,-14 -9,-5 -16,-10 -23,-16l0 0c-7,-6 -13,-12 -18,-19 -5,-7 -9,-14 -13,-22 -5,-11 -8,-21 -10,-32 -2,-11 -2,-22 -1,-33 1,-11 4,-22 9,-32 4,-10 11,-20 19,-29 7,-9 16,-17 27,-24 10,-8 21,-14 33,-20 12,-5 24,-10 36,-13 13,-3 25,-5 38,-5 12,-1 24,0 35,3 11,2 21,7 30,13 9,5 17,12 24,21 7,8 13,18 18,28 3,8 6,16 8,23 2,8 3,16 3,24 0,7 -1,15 -3,22l0 0c-2,7 -5,13 -8,19l0 0c-4,6 -9,12 -14,18 -6,6 -12,12 -20,18l-2 1 -2 -2 -19 -21 -3 -2 3 -2c5,-5 10,-9 14,-13 4,-4 7,-8 9,-12l0 0c2,-4 4,-8 5,-12 2,-5 2,-10 2,-15 1,-5 0,-10 -1,-15l0 0c-1,-5 -3,-10 -5,-15 -3,-6 -6,-12 -10,-17 -3,-4 -7,-9 -12,-12 -4,-3 -8,-6 -13,-9l0 0c-4,-2 -9,-3 -14,-5l0 0c-4,-1 -9,-1 -14,-2 -5,0 -10,0 -15,1 -9,0 -17,2 -26,5 -9,2 -18,5 -26,9 -11,5 -21,11 -29,17 -8,5 -15,11 -21,18 -5,6 -10,13 -13,20 -3,7 -5,14 -5,22l0 0c-1,7 -1,14 0,22 2,7 4,14 7,20l0 0c3,6 6,12 10,17 4,5 8,9 14,14l0 0c5,4 10,8 15,11 4,2 8,4 12,6l42 -20 -28 -59 -1 -2 3 -2zm28 -6l-23 10 27 59 2 3 -3 1 -46 22 -1 0 -1 0c-4,-2 -9,-4 -14,-7 -5,-3 -11,-7 -16,-12l0 0c-6,-4 -11,-9 -15,-15 -4,-5 -8,-11 -11,-17l0 0c-3,-7 -5,-15 -7,-22 -1,-8 -1,-16 0,-24l0 0c0,-8 2,-16 6,-23 3,-8 8,-15 14,-22 6,-7 13,-13 22,-19 8,-6 18,-12 29,-17 9,-4 18,-8 27,-10 9,-3 18,-4 27,-5l0 0c6,-1 11,-1 16,-1 5,1 10,2 16,3l0 0c5,1 10,3 15,5l0 0c5,3 10,6 14,9 5,4 9,9 13,14 4,5 7,11 10,17 3,6 5,11 6,17l0 0c1,5 2,11 1,16 0,6 0,11 -2,16 -1,5 -3,10 -6,14l0 0c-2,4 -6,8 -10,13 -3,4 -7,7 -12,11l16 17c6,-5 12,-10 17,-15 5,-6 9,-11 13,-17l0 0c3,-5 5,-11 7,-18l0 0c2,-6 3,-13 3,-20 0,-8 -1,-15 -3,-22 -2,-8 -4,-15 -8,-22 -4,-11 -10,-20 -17,-27 -6,-8 -14,-15 -22,-21 -9,-5 -18,-9 -28,-12 -11,-2 -22,-3 -34,-2 -12,0 -24,2 -36,5 -12,3 -24,7 -36,13 -11,5 -22,11 -32,19 -10,7 -18,15 -26,23 -8,9 -14,18 -18,28 -4,9 -7,19 -8,30l0 0c-1,10 -1,21 1,31 1,10 5,20 9,31 4,7 8,14 13,20 5,7 11,13 17,19l0 0c7,5 14,11 22,15 7,5 15,9 24,13l87 -41 -39 -83zm-59 179l236 -131 3 -1 1 2 82 147 1 3 -3 1 -27 15 -3 2 -2 -3 -64 -117 -68 37 61 110 1 3 -2 1 -28 15 -2 2 -2 -3 -61 -109 -75 41 68 122 1 3 -3 1 -27 16 -3 1 -1 -2 -84 -152 -2 -2 3 -2zm237 -124l-232 128 81 146 23 -12 -68 -122 -1 -3 3 -1 80 -45 3 -1 1 2 61 110 22 -13 -60 -109 -2 -3 3 -1 72 -40 3 -2 1 3 65 117 23 -13 -78 -141zm-130 311l219 -159 2 -2 2 2 27 38 1 1 -1 2 -123 157 0 0c-5,7 -10,13 -15,19l-4 5 9 -3 0 0c7,-3 15,-5 23,-9l185 -65 2 -1 2 2 24 33 2 2 -3 2 -218 159 -3 2 -2 -2 -17 -24 -2 -3 3 -2 166 -121 -203 72 -2 1 -2 -2 -16 -22 -1 -2 1 -2 134 -173 -169 123 -2 2 -2 -2 -18 -24 -1 -3 2 -1zm220 -153l-214 156 14 19 184 -134 16 -12 -12 16 -146 188 14 19 221 -78 19 -7 -17 12 -180 132 13 19 214 -156 -21 -29 -183 65c-9,3 -17,6 -23,9l0 0c-8,2 -14,5 -19,6l-10 4 7 -8c3,-4 6,-8 11,-14 4,-5 9,-11 15,-19l0 0 121 -155 -24 -33zm-74 352l258 -120 2 -1 2 2 22 24 2 2 -1 1 -134 254 -2 4 -2 -3 -24 -26 -2 -1 1 -2 41 -74 -63 -68 -76 37 -2 1 -1 -2 -22 -24 -3 -3 4 -1zm259 -114l-253 117 18 19 75 -36 2 -1 2 2 66 71 1 1 -1 2 -40 74 19 21 130 -248 -19 -22zm-126 90l48 52 36 -65c6,-11 11,-20 16,-29 2,-4 5,-7 7,-11 -4,3 -8,5 -12,7 -8,5 -16,9 -24,13l0 0 -71 33zm46 59l-53 -58 -3 -3 3 -1 76 -36 0 0c8,-4 16,-8 23,-12 8,-4 16,-9 23,-14l12 -7 -8 11c-4,7 -9,14 -14,22 -5,9 -10,18 -16,29l-38 68 -2 4 -3 -3zm-16 141l174 -207 2 -2 2 1 24 20 2 2 -2 2 -69 83 88 74 69 -83 2 -2 2 2 24 19 2 2 -2 2 -174 208 -2 2 -2 -2 -23 -20 -3 -2 2 -2 80 -95 -87 -74 -80 96 -2 2 -3 -2 -23 -20 -2 -2 1 -2zm177 -201l-170 203 19 15 80 -95 2 -2 2 2 92 77 3 2 -2 2 -80 96 19 16 170 -203 -19 -16 -70 83 -2 2 -2 -2 -92 -77 -2 -2 1 -2 70 -83 -19 -16zm78 401l127 -239 2 -3 2 2 91 48c9,5 17,10 23,15 7,5 12,10 16,14 4,5 7,11 9,17 1,6 2,13 2,20l0 0c0,7 -1,14 -3,21 -1,7 -4,14 -8,21 -4,9 -10,16 -16,22 -7,6 -14,11 -22,15l0 0c-8,3 -17,5 -27,5 -7,-1 -15,-2 -23,-4 1,2 2,3 2,5l0 0c2,3 4,7 4,10l0 0c2,6 3,13 4,21 1,7 2,15 2,23l0 0 1 84 0 5 -4 -2 -34 -18 -2 -1 0 -2 0 -64c-1,-9 -1,-17 -1,-25 -1,-7 -1,-13 -2,-18l0 0c0,-5 -1,-10 -2,-13 0,-4 -1,-7 -3,-9l0 0c-1,-3 -2,-5 -3,-7 -2,-2 -3,-4 -5,-5 -1,-1 -3,-3 -5,-4 -2,-2 -5,-3 -9,-5l-28 -15 -55 103 -2 3 -2 -2 -28 -14 -2 -2 1 -2zm131 -234l-124 234 22 12 55 -104 1 -2 3 1 31 17c4,1 7,3 9,5 3,1 5,3 6,4l0 0c2,2 4,4 6,7 1,2 3,4 4,7l0 0c1,3 2,6 3,10 1,4 2,9 2,14l0 0c1,5 1,12 2,19 0,7 0,15 0,25l0 0 1 62 28 15 -1 -79c0,-8 -1,-16 -1,-23 -1,-7 -3,-14 -4,-20l0 0c-1,-3 -2,-6 -4,-9l0 0c-1,-3 -4,-7 -6,-11l-5 -7 8 3c11,4 20,5 29,6 9,0 17,-2 25,-5l0 0c7,-3 14,-7 20,-13 6,-6 11,-13 15,-21 3,-6 6,-13 8,-19 1,-7 2,-13 2,-20 0,-7 0,-13 -2,-18 -2,-6 -4,-11 -8,-15 -3,-4 -8,-9 -14,-14 -6,-4 -14,-9 -23,-14l-88 -47zm-26 115l55 30c6,3 12,5 17,7 5,2 10,3 14,3l0 0c4,0 7,0 11,-1 4,-1 7,-2 10,-4 4,-2 7,-5 9,-8 3,-3 5,-6 7,-10 3,-5 5,-10 5,-16 1,-5 1,-10 -1,-15l0 0c-1,-5 -4,-10 -8,-14 -5,-5 -11,-9 -18,-13l-62 -33 -39 74zm53 35l-59 -31 -2 -2 1 -2 42 -79 2 -3 2 2 65 34c8,4 14,9 19,14 5,5 8,10 10,16l0 0c2,6 2,12 1,18 0,6 -2,12 -6,18 -2,4 -4,8 -7,11 -3,3 -7,6 -10,9 -4,2 -8,4 -13,5 -4,1 -8,1 -13,1 -4,0 -9,-1 -15,-3 -5,-2 -11,-5 -17,-8zm55 190l106 -249 1 -3 3 1 28 12 3 1 -1 3 -106 249 -1 3 -3 -1 -28 -12 -3 -2 1 -2zm110 -244l-103 243 23 10 103 -244 -23 -9zm-31 274l89 -255 0 -3 3 1 83 28c7,3 14,5 19,7 6,3 10,5 14,7l0 0c5,3 10,7 14,10 4,4 7,8 10,13l0 0c3,4 5,9 6,14 2,6 3,11 3,18l0 0c1,6 1,12 0,19 -1,6 -3,12 -5,19 -4,11 -9,21 -15,29 -7,9 -14,16 -23,22l0 0c-9,5 -20,8 -33,8 -12,0 -26,-2 -42,-8l-53 -18 -35 101 -1 3 -3 -1 -29 -10 -2 -1 0 -3zm93 -251l-86 250 23 8 35 -101 1 -3 3 1 56 20c15,5 29,8 40,7 12,0 22,-2 30,-7l0 0c8,-6 15,-12 21,-20 6,-8 11,-17 14,-28 2,-6 4,-12 5,-18 1,-6 1,-12 0,-18 0,-6 -1,-11 -2,-16 -2,-5 -4,-9 -6,-13l0 0c-3,-4 -6,-8 -9,-11 -4,-4 -8,-7 -13,-10l0 0c-4,-2 -8,-4 -13,-6 -6,-2 -12,-5 -19,-7l-80 -28zm-11 126l54 19c9,3 17,5 24,5 7,0 13,-1 18,-4 5,-2 9,-6 13,-10 3,-5 7,-11 9,-18 2,-5 3,-10 3,-15 1,-5 0,-9 -1,-14 0,-4 -2,-8 -4,-11l0 0c-2,-3 -4,-6 -8,-8 -2,-2 -5,-3 -9,-5 -4,-2 -10,-4 -16,-6l-53 -19 -30 86zm52 24l-57 -19 -2 -1 1 -3 31 -91 1 -3 3 1 56 19c7,2 12,5 16,6 5,3 9,4 11,6l0 0c4,3 7,6 9,10l0 0c2,4 4,8 5,13 1,5 2,10 1,15 0,6 -1,11 -3,17 -3,7 -6,14 -11,19 -4,6 -9,10 -14,13 -6,3 -13,4 -21,4 -8,-1 -16,-2 -26,-6zm25 157l143 -246 1 -2 2 0 33 7 2 1 0 2 36 284 1 4 -4 -1 -34 -7 -2 -1 -1 -2 -9 -83 -90 -20 -41 73 -1 2 -2 0 -32 -7 -4 -1 2 -3zm147 -242l-140 241 26 6 41 -73 1 -2 2 0 95 20 2 1 0 2 9 84 28 5 -36 -278 -28 -6zm-52 146l69 15 -7 -74c-2,-12 -3,-23 -3,-33 -1,-4 -1,-8 -1,-12 -2,4 -4,8 -6,12 -4,8 -8,16 -12,24l0 0 -40 68zm72 22l-77 -17 -4 -1 2 -3 42 -72 0 0c4,-8 8,-16 12,-24 4,-8 7,-16 10,-24l6 -13 0 14c0,8 1,16 2,26 0,10 1,20 3,32l8 78 0 4 -4 0zm71 119l24 -270 0 -3 3 1 31 2 3 1 -1 3 -9 107 114 10 9 -107 1 -3 3 0 30 3 3 0 0 3 -24 269 0 3 -3 0 -30 -3 -3 0 0 -3 11 -124 -114 -10 -11 124 0 3 -3 0 -31 -3 -3 0 0 -3zm30 -266l-23 263 24 3 11 -124 0 -3 3 0 120 10 3 1 0 3 -11 124 25 2 23 -264 -25 -2 -9 108 -1 3 -3 -1 -120 -10 -2 0 0 -3 9 -108 -24 -2zm293 279l-42 -267 0 -3 3 0 101 -16c10,-2 20,-3 28,-3 8,0 15,1 21,3 6,1 12,4 17,8 5,3 10,8 14,14l0 0c4,6 8,12 10,19 3,6 5,14 6,21 2,10 2,19 1,28 -2,9 -5,17 -9,24l0 0c-5,8 -11,15 -19,20 -5,5 -12,8 -20,12 1,0 3,1 4,2l0 0c4,2 7,4 10,6l0 0c5,4 10,8 15,14 6,5 11,11 16,18l0 0 51 66 3 4 -5 1 -38 6 -1 0 -1 -1 -40 -51c-5,-7 -10,-14 -15,-19 -4,-6 -9,-10 -12,-14l0 0c-3,-4 -7,-7 -10,-10 -3,-2 -5,-4 -7,-5l0 0c-3,-1 -5,-2 -8,-3l0 0c-2,-1 -4,-1 -6,-2l0 0c-2,0 -4,0 -7,0 -3,1 -6,1 -10,2l-32 5 18 115 1 3 -3 1 -30 5 -3 0 -1 -3zm-36 -265l42 261 24 -4 -18 -115 -1 -3 3 -1 35 -5c4,-1 8,-1 11,-1 3,-1 5,-1 7,-1l0 0c3,1 6,1 8,2l0 0c3,1 6,2 8,4l0 0c3,1 6,3 9,6 3,2 7,6 10,10l0 0c4,3 8,8 13,14 4,5 9,12 15,19l0 0 38 50 32 -5 -49 -63 0 0c-5,-6 -10,-12 -15,-17 -5,-5 -10,-10 -15,-14l0 0c-2,-2 -5,-3 -8,-5l0 0c-3,-2 -7,-3 -12,-5l-8 -3 9 -2c10,-4 19,-8 26,-13 7,-6 13,-12 17,-19l0 0c4,-7 6,-14 8,-22 1,-8 1,-17 0,-26 -2,-7 -3,-14 -6,-20 -3,-6 -6,-12 -10,-17l0 0c-4,-6 -8,-10 -13,-14 -4,-3 -9,-5 -15,-7 -5,-1 -12,-2 -19,-2 -8,0 -17,1 -27,2l-99 16zm48 107l63 -10c6,-1 12,-2 17,-4 5,-1 10,-3 13,-5l0 0c3,-2 6,-5 9,-8 2,-3 4,-6 5,-10 2,-3 2,-7 3,-11 0,-4 0,-8 -1,-12 -1,-6 -2,-11 -5,-16 -3,-4 -6,-8 -10,-11l0 0c-4,-4 -10,-6 -16,-7 -6,-1 -13,0 -21,1l-70 11 13 82zm64 -4l-66 11 -3 0 0 -3 -14 -88 0 -3 2 -1 73 -11c9,-1 17,-2 23,0 7,1 13,3 18,7l0 0c5,4 9,8 12,13 3,5 5,11 6,18 1,5 1,9 1,13 -1,5 -2,9 -3,13 -2,5 -4,9 -7,12 -2,3 -6,6 -10,9l0 0c-4,2 -8,4 -14,6 -5,2 -11,3 -18,4zm154 125l-74 -260 -1 -2 3 -1 161 -46 3 -1 1 3 8 30 1 3 -3 1 -128 37 21 74 120 -35 3 0 1 2 9 31 0 3 -2 1 -121 34 24 83 134 -39 3 0 1 2 8 31 1 3 -3 1 -166 47 -3 1 -1 -3zm-68 -258l73 254 161 -46 -7 -25 -134 38 -3 1 -1 -3 -25 -88 -1 -3 3 -1 120 -34 -7 -25 -120 34 -3 1 -1 -3 -23 -79 -1 -3 3 -1 129 -37 -7 -25 -156 45zm276 196l-101 -251 -1 -2 3 -2 81 -32c7,-3 13,-6 19,-7 6,-2 11,-4 15,-4l0 0c6,-1 12,-2 17,-2 5,0 11,1 16,3l0 0c5,1 10,4 14,7 5,3 10,6 14,11 4,4 8,9 12,15 3,5 6,11 9,17 4,11 7,22 8,33 0,10 -1,20 -4,30l0 0c-3,11 -9,20 -18,28 -9,8 -22,16 -37,22l-53 21 40 99 1 3 -2 1 -29 12 -2 1 -2 -3zm-94 -250l99 245 23 -9 -40 -99 -1 -3 2 -1 55 -23c15,-6 27,-12 36,-20 8,-8 14,-16 17,-25l0 0c3,-10 4,-19 3,-29 -1,-10 -3,-20 -8,-30 -2,-7 -5,-12 -8,-17 -3,-5 -7,-10 -11,-14 -4,-4 -9,-8 -13,-10 -4,-3 -9,-5 -13,-7l0 0c-4,-1 -9,-2 -14,-2 -5,0 -10,0 -16,2l0 0c-4,0 -9,1 -14,3 -6,2 -12,4 -19,7l-78 32zm74 102l53 -21c9,-4 16,-8 22,-12l0 0c5,-5 9,-9 11,-14 2,-6 3,-11 2,-17 0,-6 -2,-13 -4,-20 -2,-5 -5,-9 -8,-13 -2,-4 -6,-7 -9,-10 -4,-2 -7,-4 -11,-5 -4,-1 -7,-2 -11,-1l0 0c-3,0 -6,1 -10,2 -5,1 -10,3 -17,6l-52 21 34 84zm55 -16l-55 23 -3 1 -1 -3 -36 -90 -2 -2 3 -1 55 -23c7,-2 12,-4 17,-6 5,-1 8,-2 11,-2l0 0c5,-1 9,0 14,1 4,2 8,4 12,7 4,3 8,6 11,11 3,4 6,9 8,14 3,8 5,15 5,22 0,6 -1,13 -3,19 -2,6 -7,11 -13,16l0 0c-6,5 -13,9 -23,13zm165 82l-132 -237 -1 -2 3 -2 146 -81 3 -1 1 2 16 28 1 3 -3 1 -117 65 38 67 109 -60 3 -2 1 3 16 28 1 2 -3 2 -109 60 42 76 121 -68 3 -1 1 2 16 28 1 3 -2 1 -151 84 -3 2 -1 -3zm-125 -237l128 231 146 -80 -12 -23 -122 67 -3 2 -1 -3 -45 -80 -1 -3 2 -1 110 -61 -13 -23 -109 61 -3 1 -1 -2 -40 -73 -2 -2 3 -2 117 -64 -13 -23 -141 78zm313 132l-163 -216 -1 -2 2 -2 24 -18 3 -2 2 2 65 86 91 -68 -65 -87 -2 -2 3 -2 24 -18 2 -2 2 2 163 216 2 3 -3 1 -24 19 -2 2 -2 -3 -75 -99 -92 69 75 99 2 2 -2 2 -25 19 -2 1 -2 -2zm-156 -217l159 211 20 -15 -75 -99 -2 -2 2 -2 97 -73 2 -2 2 3 75 99 19 -15 -159 -211 -19 15 65 86 1 3 -2 1 -96 73 -3 2 -1 -3 -65 -86 -20 15zm409 14l-198 -184 -2 -2 2 -2 70 -75c7,-8 14,-14 20,-19 7,-6 13,-9 18,-12 6,-2 12,-3 19,-4 6,0 13,1 20,3l0 0c7,2 13,5 20,8 6,4 12,8 17,13 8,7 13,14 18,22 4,8 7,16 8,25 1,9 0,18 -2,27 -2,7 -5,14 -10,21 2,0 4,0 5,-1 4,0 8,-1 11,-1l0 0c7,0 14,1 21,2 8,1 15,2 23,4l0 0 82 21 5 1 -4 4 -26 28 -1 1 -2 0 -62 -16 0 0c-9,-2 -17,-4 -24,-6 -7,-1 -13,-2 -18,-3l0 0c-5,-1 -10,-2 -13,-2 -4,0 -7,0 -10,1l0 0c-3,0 -5,1 -7,2 -3,1 -5,2 -7,3 -1,1 -3,2 -5,4 -2,2 -4,4 -7,7l-22 24 86 79 2 3 -2 2 -21 22 -2 2 -2 -2zm-192 -186l194 180 17 -18 -86 -80 -2 -2 2 -2 24 -26c3,-3 5,-6 7,-8 3,-2 4,-3 6,-4l0 0c2,-2 5,-3 8,-4 2,-1 5,-2 8,-2l0 0c3,-1 7,-1 11,-1 4,1 9,1 14,2l0 0c5,1 11,2 18,3 7,2 15,4 24,6l0 0 61 16 21 -24 -76 -19 0 0c-8,-2 -15,-3 -23,-4 -7,-1 -14,-2 -20,-2l0 0c-3,0 -6,0 -10,1 -3,1 -7,2 -11,3l-9 3 5 -7c6,-9 11,-18 13,-27 2,-8 3,-16 2,-24 -1,-8 -4,-16 -8,-23 -4,-7 -9,-14 -16,-20 -5,-5 -11,-9 -16,-13 -6,-3 -12,-6 -19,-7l0 0c-6,-2 -12,-3 -18,-3 -6,0 -11,2 -16,4 -6,2 -11,5 -17,10 -6,5 -13,11 -20,19l-68 73zm104 54l43 -46c5,-5 9,-9 12,-14 3,-4 5,-8 6,-12l0 0c1,-4 2,-8 2,-11 0,-4 0,-8 -2,-11 -1,-4 -2,-8 -5,-11 -2,-3 -4,-6 -7,-9 -5,-4 -9,-7 -14,-9 -5,-2 -10,-3 -15,-3l0 0c-6,0 -11,1 -16,4 -6,3 -11,8 -17,14l-48 51 61 57zm47 -42l-45 49 -2 2 -2 -2 -65 -61 -2 -2 2 -2 50 -54c6,-7 12,-11 18,-15 6,-3 12,-5 18,-5 7,0 12,1 18,3 6,2 11,6 16,10 3,4 6,7 8,11 3,3 5,7 6,12 2,4 2,8 2,13 0,4 -1,9 -2,13l0 0c-2,4 -4,9 -8,14 -3,4 -7,9 -12,14zm198 8l-166 -231 -1 -2 1 -2 19 -26 1 -2 2 0 275 83 4 1 -3 3 -20 29 -1 1 -2 0 -80 -26 -55 75 50 67 1 2 -1 1 -19 27 -2 3 -3 -3zm-160 -233l163 226 15 -21 -50 -67 -1 -2 1 -2 57 -78 1 -2 2 1 80 25 17 -23 -268 -80 -17 23zm112 107l41 -57 -70 -24c-12,-3 -22,-7 -31,-10 -5,-2 -9,-3 -12,-4 3,3 6,6 9,10 5,6 11,13 16,21l0 0 47 64zm49 -57l-47 63 -2 4 -2 -4 -49 -67 0 0c-6,-7 -11,-14 -17,-21 -6,-6 -12,-13 -18,-19l-10 -10 14 5c6,3 14,6 24,9 9,4 19,7 30,11l75 24 4 1 -2 4zm141 -9l-236 -131 -3 -1 1 -3 43 -76c4,-7 7,-13 10,-18 4,-5 7,-9 9,-12l0 0c4,-5 8,-9 13,-12 4,-3 9,-6 14,-8 4,-2 10,-3 15,-4 6,0 12,0 18,0l0 0c6,1 12,2 18,4 6,2 13,5 19,8 10,6 19,13 26,20 7,8 13,17 17,26l0 1c4,9 5,21 3,33 -2,12 -7,25 -15,40l-28 49 94 52 2 2 -1 2 -15 27 -1 3 -3 -2zm-231 -135l231 129 12 -22 -93 -52 -3 -1 2 -3 28 -52c8,-14 13,-27 15,-38 2,-11 1,-21 -3,-30l0 0c-3,-9 -9,-17 -15,-25 -7,-7 -16,-13 -25,-19 -6,-3 -12,-5 -18,-7 -5,-2 -11,-3 -17,-4 -6,-1 -11,-1 -16,0 -5,1 -10,2 -14,3 -5,2 -9,5 -13,8 -4,3 -7,6 -11,11l0 0c-3,3 -6,7 -9,11 -3,5 -6,11 -10,18l-41 73zm122 33l28 -50c4,-8 7,-16 9,-23 1,-6 1,-12 0,-18 -2,-5 -5,-10 -9,-14 -4,-5 -9,-9 -16,-12 -4,-3 -9,-5 -14,-6 -4,-1 -9,-2 -13,-2 -4,1 -8,1 -12,3 -4,1 -7,3 -10,6l0 0c-1,2 -3,4 -6,8 -3,4 -6,9 -9,15l0 0 -27 49 79 44zm33 -47l-29 53 -2 2 -2 -1 -85 -47 -2 -2 1 -2 29 -52 0 0c3,-6 6,-11 9,-15 3,-4 5,-7 7,-9l0 -1c4,-3 8,-5 12,-7 4,-1 9,-2 14,-3 5,0 10,1 15,2 5,2 10,4 15,7 7,3 13,8 18,13 4,5 7,11 9,17 2,6 2,13 1,21 -2,7 -5,15 -10,24zm183 -45l-245 -114 -3 -2 1 -2 13 -28 1 -3 3 2 245 114 3 1 -1 3 -13 28 -2 2 -2 -1zm-240 -118l240 111 10 -22 -240 -112 -10 23zm277 42l-254 -93 -2 -1 1 -2 10 -29 1 -3 3 1 101 37 40 -108 -102 -37 -3 -1 1 -2 11 -29 1 -3 3 1 254 92 2 1 -1 3 -10 29 -1 3 -3 -1 -117 -43 -39 108 117 42 3 1 -1 3 -11 29 -1 3 -3 -1zm-249 -97l249 90 8 -23 -117 -43 -3 -1 1 -2 42 -114 1 -2 2 1 117 42 9 -23 -249 -90 -8 23 101 37 3 1 -1 3 -41 113 -1 2 -3 -1 -101 -37 -9 24z"/>
 </g>
</svg>
