<?xml version="1.0" encoding="UTF-8" standalone="no"?>
<!-- Created with Inkscape (http://www.inkscape.org/) -->

<svg
   width="87.104927mm"
   height="46.752487mm"
   viewBox="0 0 87.104927 46.752487"
   version="1.1"
   id="svg5"
   xml:space="preserve"
   xmlns:inkscape="http://www.inkscape.org/namespaces/inkscape"
   xmlns:sodipodi="http://sodipodi.sourceforge.net/DTD/sodipodi-0.dtd"
   xmlns="http://www.w3.org/2000/svg"
   xmlns:svg="http://www.w3.org/2000/svg"><sodipodi:namedview
     id="namedview7"
     pagecolor="#505050"
     bordercolor="#eeeeee"
     borderopacity="1"
     inkscape:showpageshadow="0"
     inkscape:pageopacity="0"
     inkscape:pagecheckerboard="0"
     inkscape:deskcolor="#505050"
     inkscape:document-units="mm"
     showgrid="false" /><defs
     id="defs2" /><g
     inkscape:label="Layer 1"
     inkscape:groupmode="layer"
     id="layer1"
     transform="translate(78.51388,-93.954877)"><g
       id="g229"
       transform="matrix(0.5437601,0,0,0.5437601,-63.446288,93.911377)"><g
         id="g209"><path
           id="Layer"
           class="shp0"
           d="m -17.03,80.63 v 2.67 c 0,0.47 -0.13,0.83 -0.46,1.15 -1.08,0.98 -2.49,1.61 -4.22,1.61 -3.31,-0.02 -6,-2.43 -6,-6.06 0,-3.63 2.69,-6.02 6.02,-6.02 1.75,0 3.01,0.62 3.99,1.6 0.16,0.14 0.24,0.35 0.24,0.58 0,0.45 -0.37,0.8 -0.82,0.8 -0.21,0 -0.41,-0.08 -0.57,-0.22 -0.71,-0.71 -1.7,-1.19 -2.84,-1.19 -2.42,0 -4.23,1.85 -4.23,4.47 0,2.61 1.81,4.49 4.23,4.49 1.28,0 2.39,-0.63 2.93,-1.16 v -2.09 h -3.04 c -0.42,0 -0.77,-0.35 -0.77,-0.79 0,-0.42 0.35,-0.75 0.77,-0.75 h 3.86 c 0.59,-0.02 0.91,0.32 0.91,0.91 z" /><path
           id="path185"
           class="shp0"
           d="m -14.8,84.9 v -9.95 c 0,-0.47 0.4,-0.87 0.88,-0.87 0.46,0 0.85,0.4 0.85,0.87 v 9.34 h 4.58 c 0.42,0 0.78,0.33 0.78,0.75 0,0.44 -0.36,0.79 -0.78,0.79 h -5.37 c -0.61,-0.01 -0.94,-0.35 -0.94,-0.93 z" /><path
           id="path187"
           fill-rule="evenodd"
           class="shp0"
           d="m -1.07,73.97 c 3.46,0 5.84,2.57 5.84,6.02 0,3.46 -2.38,6.02 -5.84,6.02 -3.46,0 -5.85,-2.58 -5.85,-6.02 0,-3.45 2.39,-6.02 5.85,-6.02 z m 0,1.56 c -2.49,0 -4.06,1.9 -4.06,4.47 0,2.55 1.57,4.48 4.06,4.48 2.45,0 4.05,-1.92 4.05,-4.48 0,-2.57 -1.6,-4.47 -4.05,-4.47 z" /><path
           id="path189"
           fill-rule="evenodd"
           class="shp0"
           d="m 6.87,84.9 v -9.8 c 0,-0.6 0.34,-0.94 0.95,-0.94 h 4.5 c 2.07,0 3.27,1.27 3.27,2.96 0,1.47 -0.96,2.45 -2.02,2.68 1.23,0.19 2.24,1.44 2.24,2.86 0,1.84 -1.22,3.14 -3.35,3.14 H 7.82 C 7.21,85.82 6.87,85.48 6.87,84.9 Z m 5.11,-5.8 c 1.17,0 1.81,-0.74 1.81,-1.69 0,-0.96 -0.64,-1.7 -1.81,-1.7 H 8.6 v 3.41 h 3.38 z m 0.08,5.19 c 1.22,0 1.96,-0.7 1.96,-1.84 0,-0.96 -0.66,-1.8 -1.96,-1.8 H 8.6 v 3.64 z" /><path
           id="path191"
           fill-rule="evenodd"
           class="shp0"
           d="m 27.78,85.01 c 0,0.48 -0.4,0.89 -0.88,0.89 -0.39,0 -0.71,-0.24 -0.82,-0.57 L 25.34,83.4 h -5.75 l -0.74,1.93 c -0.12,0.33 -0.44,0.57 -0.81,0.57 -0.48,0 -0.88,-0.41 -0.88,-0.89 0,-0.11 0.03,-0.22 0.06,-0.34 l 3.83,-9.62 c 0.21,-0.57 0.77,-0.99 1.41,-0.99 0.66,0 1.2,0.42 1.42,0.99 l 3.83,9.62 c 0.02,0.1 0.07,0.23 0.07,0.34 z m -3.01,-3.15 -2.31,-6.17 -2.29,6.17 z" /><path
           id="path193"
           class="shp0"
           d="m 29.54,84.9 v -9.95 c 0,-0.47 0.4,-0.87 0.88,-0.87 0.47,0 0.85,0.4 0.85,0.87 v 9.34 h 4.57 c 0.41,0 0.78,0.33 0.78,0.75 0,0.44 -0.37,0.79 -0.78,0.79 H 30.47 C 29.88,85.82 29.54,85.48 29.54,84.9 Z" /><path
           id="path195"
           class="shp0"
           d="m 53.15,80.63 v 2.67 c 0,0.47 -0.13,0.83 -0.46,1.15 -1.08,0.98 -2.49,1.61 -4.22,1.61 -3.31,0 -6.02,-2.42 -6.02,-6.06 0,-3.63 2.69,-6.02 6.02,-6.02 1.75,0 3.02,0.62 3.99,1.6 0.16,0.14 0.24,0.35 0.24,0.58 0,0.45 -0.36,0.8 -0.81,0.8 -0.21,0 -0.42,-0.08 -0.58,-0.22 -0.7,-0.71 -1.7,-1.19 -2.84,-1.19 -2.41,0 -4.22,1.85 -4.22,4.47 0,2.61 1.81,4.49 4.22,4.49 1.29,0 2.39,-0.63 2.94,-1.16 v -2.09 h -3.05 c -0.41,0 -0.77,-0.35 -0.77,-0.79 0,-0.42 0.36,-0.75 0.77,-0.75 h 3.86 c 0.61,-0.02 0.93,0.32 0.93,0.91 z" /><path
           id="path197"
           fill-rule="evenodd"
           class="shp0"
           d="m 65.12,85.01 c 0,0.48 -0.4,0.89 -0.88,0.89 -0.39,0 -0.71,-0.24 -0.82,-0.57 L 62.68,83.4 h -5.75 l -0.73,1.93 c -0.13,0.33 -0.45,0.57 -0.82,0.57 -0.48,0 -0.88,-0.41 -0.88,-0.89 0,-0.11 0.03,-0.22 0.06,-0.34 l 3.83,-9.62 c 0.21,-0.57 0.77,-0.99 1.41,-0.99 0.66,0 1.2,0.42 1.43,0.99 l 3.82,9.62 c 0.04,0.1 0.07,0.23 0.07,0.34 z m -3.01,-3.15 -2.31,-6.17 -2.29,6.17 z" /><path
           id="path199"
           class="shp0"
           d="m 76.88,85.03 v -8.47 l -3.66,9.01 c -0.08,0.21 -0.25,0.34 -0.46,0.34 -0.22,0 -0.4,-0.13 -0.46,-0.34 l -3.66,-9.01 v 8.47 c 0,0.46 -0.38,0.87 -0.85,0.87 -0.48,0 -0.88,-0.41 -0.88,-0.87 v -9.5 c 0,-0.79 0.64,-1.45 1.46,-1.45 0.61,0 1.15,0.37 1.36,0.9 l 3.05,7.57 3.04,-7.57 c 0.21,-0.54 0.75,-0.9 1.36,-0.9 0.82,0 1.46,0.66 1.46,1.45 v 9.5 c 0,0.46 -0.4,0.87 -0.88,0.87 -0.5,0 -0.88,-0.39 -0.88,-0.87 z" /><path
           id="path201"
           class="shp0"
           d="m 81.19,84.9 v -9.8 c 0,-0.6 0.33,-0.94 0.94,-0.94 h 6.15 c 0.42,0 0.79,0.36 0.79,0.79 0,0.42 -0.37,0.76 -0.79,0.76 h -5.35 v 3.41 h 5.24 c 0.42,0 0.79,0.34 0.79,0.76 0,0.43 -0.37,0.78 -0.79,0.78 h -5.24 v 3.64 h 5.35 c 0.42,0 0.79,0.34 0.79,0.76 0,0.43 -0.37,0.79 -0.79,0.79 H 82.13 C 81.52,85.82 81.19,85.48 81.19,84.9 Z" /><path
           id="path203"
           class="shp0"
           d="m 94.67,84.56 c 0,-0.45 0.36,-0.8 0.79,-0.8 0.16,0 0.32,0.04 0.43,0.14 0.42,0.35 0.9,0.58 1.56,0.58 1.34,0 2.17,-0.9 2.17,-2.27 v -7.24 c 0,-0.47 0.41,-0.87 0.87,-0.87 0.48,0 0.86,0.4 0.86,0.87 v 7.26 c 0,2.59 -1.63,3.81 -3.79,3.81 -0.98,0 -1.81,-0.24 -2.56,-0.84 -0.2,-0.16 -0.33,-0.38 -0.33,-0.64 z" /><path
           id="path205"
           fill-rule="evenodd"
           class="shp0"
           d="m 113.27,85.01 c 0,0.48 -0.4,0.89 -0.88,0.89 -0.38,0 -0.7,-0.24 -0.81,-0.57 l -0.74,-1.93 h -5.75 l -0.74,1.93 c -0.13,0.33 -0.45,0.57 -0.82,0.57 -0.48,0 -0.88,-0.41 -0.88,-0.89 0,-0.11 0.03,-0.22 0.07,-0.34 l 3.83,-9.62 c 0.2,-0.57 0.76,-0.99 1.4,-0.99 0.66,0 1.21,0.42 1.43,0.99 l 3.83,9.62 c 0.02,0.1 0.06,0.23 0.06,0.34 z m -3.01,-3.15 -2.31,-6.17 -2.29,6.17 z" /><path
           id="path207"
           class="shp0"
           d="m 125.02,85.03 v -8.47 l -3.66,9.01 c -0.08,0.21 -0.25,0.34 -0.46,0.34 -0.23,0 -0.4,-0.13 -0.47,-0.34 l -3.65,-9.01 v 8.47 c 0,0.46 -0.38,0.87 -0.85,0.87 -0.48,0 -0.88,-0.41 -0.88,-0.87 v -9.5 c 0,-0.79 0.64,-1.45 1.46,-1.45 0.61,0 1.15,0.37 1.36,0.9 l 3.04,7.57 3.05,-7.57 c 0.21,-0.54 0.75,-0.9 1.36,-0.9 0.82,0 1.46,0.66 1.46,1.45 v 9.5 c 0,0.46 -0.4,0.87 -0.88,0.87 -0.5,0 -0.88,-0.39 -0.88,-0.87 z" /></g><g
         id="g223"><path
           id="path211"
           fill-rule="evenodd"
           class="shp0"
           d="m 81.41,33.26 c 0,18.24 -14.53,32.66 -32.66,32.66 -18.14,0 -32.86,-14.55 -32.86,-32.79 0,-18.24 14.61,-33.05 32.74,-33.05 18.14,0 32.78,14.96 32.78,33.18 z" /><g
           id="g219"><path
             id="path213"
             fill-rule="evenodd"
             class="shp1"
             d="m 19.5,34.61 c -0.32,-3.09 -2.63,-4.22 -2.94,-8.35 -0.44,2.17 -0.68,4.44 -0.68,6.74 0,4.54 0.91,8.87 2.57,12.81 -0.54,-5 1.48,-7.13 1.05,-11.2 z" /><path
             id="path215"
             fill-rule="evenodd"
             class="shp1"
             d="M 32.5,4.35 C 28.64,6.55 25.26,9.51 22.57,13.06 28.75,7.81 34.99,8.48 36.09,7.52 37.5,6.28 31.37,5.78 31.37,5.78 c 0,0 0.24,-0.63 1.13,-1.43 z" /><path
             id="path217"
             fill-rule="evenodd"
             class="shp1"
             d="m 61.47,63.34 c -3.94,1.68 -8.27,2.61 -12.8,2.61 -9.82,0 -18.62,-4.33 -24.62,-11.2 1.23,0.5 2.59,0.66 4.02,0.51 -7.47,-7.05 -0.9,-17.96 4.77,-22.81 5.67,-4.84 10.93,-7.98 11.81,-14.39 0.88,-6.41 -4.46,-7.18 -8.59,-7.18 3.76,-3.99 9.36,-3.89 9.88,-3.81 0.53,0.08 -0.62,0.96 -0.89,1.82 -0.28,0.83 -0.44,0.45 0.43,1.3 0.86,0.85 2.03,-1.4 2.58,-2.22 C 48.6,7.15 49.21,6.86 50.09,7.23 50.97,7.6 51.84,7.74 52.72,6.58 53.6,5.44 55.06,6 56.47,6.15 57.89,6.29 58.29,5.59 58.65,4.14 59,2.69 55.25,-0.23 44.12,0.68 42.77,0.77 41.57,0.93 40.5,1.13 43.11,0.45 45.83,0.1 48.63,0.1 c 16.38,0 29.95,12.07 32.38,27.85 -1.11,-2.76 -3.12,-7.43 -4.05,-7.43 -1.32,0 -2.49,-0.61 -3.08,-1.14 -0.61,-0.53 -2.83,-3.01 -4.16,-1.35 -1.33,1.66 -2.39,5.49 0.54,7.1 2.93,1.61 1.92,-1.97 3.53,-1.37 0.56,0.37 0.72,4.41 1.57,4.41 0.83,0 0.94,-3.8 0.94,-3.8 0,0 3.03,3.75 0.08,5.56 -1.89,1.12 -5.61,-2.42 -8.15,-4.48 -2.55,-2.04 -7.08,-3.03 -9.39,1.48 -2.31,4.51 -1.67,9.37 2.63,13.78 4.29,4.41 -1.03,10.11 -2.85,11.9 -1.83,1.78 -6.56,6.61 -0.05,9.96 0.88,0.45 1.86,0.69 2.9,0.77 z M 46.9,11.33 c -1.29,1.16 -1.13,1.11 -0.68,1.39 0.44,0.27 2.09,0.37 3.04,-1.34 C 50.2,9.67 48.2,10.17 46.9,11.33 Z" /></g><path
           id="path221"
           fill-rule="evenodd"
           class="shp2"
           d="m 86.23,33.42 c -1.98,-0.31 -3.92,-0.29 -4.84,-0.26 0,0.03 0,0.07 0,0.1 0,1.85 -0.16,3.67 -0.44,5.44 0.89,-0.08 2.94,-0.18 5.27,0.4 10.43,3.01 9.64,15.73 -2.13,15.73 C 56.4,54.83 45.59,6.31 19.8,6.31 8.83,6.31 0.06,13.97 0.06,22.26 c 0,7.41 4.76,15.83 15.37,17.58 l 1.18,0.19 c -0.4,-1.81 -0.64,-3.7 -0.72,-5.61 l -0.46,-0.07 c -16.1,-3.22 -10.99,-22.95 4,-22.95 22.7,0 33.61,48.56 64.98,48.56 6.36,0 14.54,-3.72 14.54,-12.31 0.02,-7.34 -5.38,-12.9 -12.72,-14.23 z" /></g><g
         id="g227"><path
           id="path225"
           fill-rule="evenodd"
           class="shp0"
           d="m 130.41,73.97 c 1.16,0 2.07,0.92 2.07,2.07 0,1.15 -0.91,2.08 -2.07,2.08 -1.13,0 -2.06,-0.93 -2.06,-2.08 0.01,-1.15 0.93,-2.07 2.06,-2.07 z m 0,0.29 c -0.97,0 -1.77,0.79 -1.77,1.77 0,0.98 0.8,1.79 1.77,1.79 0.98,0 1.77,-0.81 1.77,-1.79 0.01,-0.98 -0.77,-1.77 -1.77,-1.77 z m 0.04,2.04 h -0.5 v 0.82 c 0,0.08 -0.06,0.16 -0.14,0.16 -0.1,0 -0.16,-0.06 -0.16,-0.16 v -2.06 c 0,-0.11 0.08,-0.19 0.19,-0.19 h 0.77 c 0.4,0 0.75,0.29 0.75,0.72 0,0.47 -0.37,0.66 -0.53,0.7 l 0.51,0.75 c 0.02,0.04 0.04,0.07 0.04,0.08 0,0.1 -0.08,0.18 -0.18,0.18 -0.07,0 -0.11,-0.03 -0.15,-0.08 z m 0.14,-1.16 h -0.66 V 76 h 0.66 c 0.21,0 0.43,-0.18 0.43,-0.42 0,-0.26 -0.22,-0.44 -0.43,-0.44 z" /></g></g></g><style
     id="style182">
    tspan { white-space:pre }
    .shp0 { fill: #ffffff }
    .shp1 { fill: #22a9e0 }
    .shp2 { fill: #f3eb33 }
  </style></svg>
