<svg width="1024" height="1024" viewBox="0 0 1024 1024" fill="none" xmlns="http://www.w3.org/2000/svg">
<g clip-path="url(#clip0_119_4)">
<path d="M432 0H592C618.6 0 640 21.4 640 48V384H815.4C851 384 868.8 427 843.6 452.2L539.4 756.6C524.4 771.6 499.8 771.6 484.8 756.6L180.2 452.2C155 427 172.8 384 208.4 384H384V48C384 21.4 405.4 0 432 0ZM1024 752V976C1024 1002.6 1002.6 1024 976 1024H48C21.4 1024 0 1002.6 0 976V752C0 725.4 21.4 704 48 704H341.4L439.4 802C479.6 842.2 544.4 842.2 584.6 802L682.6 704H976C1002.6 704 1024 725.4 1024 752ZM776 928C776 906 758 888 736 888C714 888 696 906 696 928C696 950 714 968 736 968C758 968 776 950 776 928ZM904 928C904 906 886 888 864 888C842 888 824 906 824 928C824 950 842 968 864 968C886 968 904 950 904 928Z" fill="white"/>
</g>
<defs>
<clipPath id="clip0_119_4">
<rect width="1024" height="1024" fill="white"/>
</clipPath>
</defs>
</svg>
