<svg width="1176" height="1194" viewBox="0 0 1176 1194" fill="none" xmlns="http://www.w3.org/2000/svg">
<path d="M94.4354 747.254C158.04 962.528 354.793 1119.38 587.655 1119.38C871.982 1119.38 1102.48 885.493 1102.48 597C1102.48 308.501 871.982 74.625 587.655 74.625C314.813 74.625 91.563 289.982 73.9307 562.296C73.9307 640.532 73.9307 673.181 94.4354 747.254Z" fill="url(#paint0_linear_119_9)"/>
<path d="M561.195 468.753L435.216 654.442C405.518 653.073 375.622 661.603 350.805 678.162L74.1722 562.613C74.1722 562.613 67.771 669.464 94.4471 749.097L290.012 830.975C299.831 875.5 329.934 914.555 374.347 933.342C447.009 964.147 530.791 929.036 561.018 855.277C568.886 835.994 572.554 815.774 572.021 795.596L756.697 664.979C864.57 664.979 952.244 575.75 952.244 466.171C952.244 356.585 864.57 267.437 756.697 267.437C652.507 267.437 555.355 359.739 561.195 468.753ZM530.924 842.453C507.529 899.444 442.985 926.48 386.878 902.761C360.996 891.821 341.455 871.777 330.181 847.878L393.839 874.646C435.216 892.134 482.686 872.224 499.885 830.255C517.139 788.241 497.566 739.996 456.211 722.508L390.406 694.841C415.797 685.069 444.664 684.71 471.635 696.098C498.822 707.575 519.921 729.191 531.1 756.809C542.283 784.432 542.239 814.92 530.924 842.453ZM756.697 598.619C684.888 598.619 626.422 539.207 626.422 466.171C626.422 393.195 684.888 333.767 756.697 333.767C828.555 333.767 887.016 393.195 887.016 466.171C887.016 539.207 828.555 598.619 756.697 598.619ZM659.078 465.97C659.078 411.031 702.917 366.468 756.918 366.468C810.966 366.468 854.801 411.031 854.801 465.97C854.801 520.916 810.966 565.437 756.918 565.437C702.917 565.437 659.078 520.916 659.078 465.97Z" fill="white"/>
<defs>
<linearGradient id="paint0_linear_119_9" x1="588.206" y1="74.625" x2="588.206" y2="1119.37" gradientUnits="userSpaceOnUse">
<stop stop-color="#111D2E"/>
<stop offset="0.21248" stop-color="#051839"/>
<stop offset="0.40695" stop-color="#0A1B48"/>
<stop offset="0.5811" stop-color="#132E62"/>
<stop offset="0.7376" stop-color="#144B7E"/>
<stop offset="0.87279" stop-color="#136497"/>
<stop offset="1" stop-color="#1387B8"/>
</linearGradient>
</defs>
</svg>
